<svg width="251" height="227" viewBox="0 0 251 227" fill="none" xmlns="http://www.w3.org/2000/svg">
<g clip-path="url(#clip0_2015_6634)">
<path d="M137.783 14.9841C105.762 14.9841 52.7288 27.9508 52.7288 67.3986C52.7288 101.002 97.7573 130.588 139.984 130.588C182.211 130.588 225.038 106.847 225.038 70.8685C225.038 32.2675 181.21 14.9841 137.783 14.9841Z" fill="url(#paint0_linear_2015_6634)"/>
</g>
<g clip-path="url(#clip1_2015_6634)">
<path d="M227.658 94.6696H168.628C165.809 89.9232 172.946 84.9394 178.408 88.2619C176.558 79.1646 192.064 75.1303 195.941 83.3574C200.61 73.9437 218.671 75.8423 216.733 88.8158C222.284 85.7306 229.86 89.5276 227.658 94.6696Z" fill="white"/>
</g>
<g clip-path="url(#clip2_2015_6634)">
<path d="M222.268 206.953H26.9135L32.3997 199.008L40.7537 197.413L47.4205 182.587L74.0849 174.07L80.9217 157.825L98.7262 149.742L98.8603 146.167L114.575 125.932L128.599 117.276L129.733 105.884L133.41 68.9213L145.983 51.1298L151.384 50.1418L162.523 30.8303L176.952 81.7698L189.273 89.3797L195.914 128.135L197.037 134.687L207.585 143.659L222.268 206.953Z" fill="url(#paint1_linear_2015_6634)"/>
<path d="M128.599 117.276L127.974 124.269C122.777 127.085 124.093 134.413 120.498 137.577C116.954 140.694 112.872 139.083 109.613 143.279C105.477 148.601 107.588 159.093 98.9799 161.83C91.7064 164.142 85.0557 157.115 80.9217 157.825L98.726 149.742L98.8603 146.167L114.575 125.932L128.599 117.276ZM195.914 128.135C193.999 130.164 188.387 130.429 184.253 128.072C179.481 125.353 175.307 113.816 166.979 112.273C158.431 110.69 153.409 119.367 145.813 116.315C139.708 113.861 138.978 102.947 129.733 105.884L133.41 68.9212L145.983 51.1297L151.384 50.1417L162.523 30.8303L176.952 81.7698L189.273 89.3795L195.914 128.135L195.914 128.135Z" fill="white"/>
<path d="M222.268 207.254H26.9135C26.8539 207.254 26.7953 207.24 26.744 207.213C26.6926 207.185 26.6503 207.146 26.6213 207.099C26.5923 207.052 26.5778 206.999 26.5792 206.946C26.5806 206.892 26.5979 206.84 26.6293 206.794L32.1155 198.849C32.1393 198.815 32.1706 198.785 32.2074 198.762C32.2443 198.738 32.286 198.722 32.3301 198.714L40.5102 197.151L47.1104 182.473C47.1281 182.434 47.155 182.398 47.1891 182.369C47.2233 182.339 47.264 182.317 47.3086 182.302L73.827 173.833L80.6087 157.718C80.6383 157.648 80.6962 157.59 80.771 157.556L98.3981 149.553L98.5258 146.157C98.5279 146.098 98.5489 146.042 98.586 145.994L114.301 125.759C114.324 125.729 114.352 125.703 114.386 125.683L128.28 117.107L129.4 105.857L133.076 68.8942C133.081 68.8463 133.098 68.7999 133.127 68.7592L145.701 50.9675C145.725 50.9334 145.756 50.904 145.794 50.881C145.831 50.8581 145.872 50.8421 145.916 50.834L151.16 49.8748L162.226 30.6912C162.257 30.6371 162.306 30.5928 162.366 30.5642C162.426 30.5355 162.494 30.5239 162.561 30.5307C162.628 30.5378 162.692 30.563 162.743 30.6032C162.794 30.6434 162.83 30.6966 162.847 30.7557L177.245 81.5854L189.462 89.1309C189.538 89.1779 189.59 89.2513 189.604 89.3336L197.35 134.539L207.815 143.44C207.865 143.482 207.899 143.537 207.913 143.597L222.596 206.891C222.606 206.935 222.605 206.98 222.593 207.024C222.581 207.068 222.559 207.108 222.528 207.143C222.496 207.178 222.457 207.206 222.412 207.225C222.367 207.244 222.318 207.254 222.268 207.254ZM27.5158 206.652H221.856L207.279 143.813L196.807 134.906C196.753 134.86 196.717 134.799 196.706 134.733L188.965 89.5545L176.763 82.0185C176.696 81.9771 176.648 81.9153 176.628 81.8444L162.415 31.6699L151.681 50.2805C151.658 50.3204 151.625 50.3551 151.585 50.3822C151.545 50.4092 151.499 50.4279 151.45 50.4369L146.189 51.3995L133.736 69.0211L130.067 105.911L128.933 117.302C128.928 117.347 128.913 117.39 128.888 117.428C128.863 117.466 128.829 117.499 128.789 117.524L114.814 126.149L99.1915 146.266L99.0605 149.752C99.0585 149.806 99.0403 149.858 99.008 149.904C98.9756 149.949 98.9303 149.986 98.8767 150.011L81.1885 158.041L74.3979 174.177C74.3807 174.218 74.3538 174.255 74.3191 174.286C74.2843 174.316 74.2426 174.34 74.1969 174.354L47.6742 182.825L41.0636 197.526C41.043 197.571 41.0103 197.612 40.9684 197.643C40.9264 197.675 40.8765 197.697 40.8229 197.707L32.6084 199.276L27.5158 206.652Z" fill="#242D35"/>
<path d="M147.207 71.5736C147.199 71.5736 147.192 71.5736 147.185 71.573C147.141 71.5705 147.098 71.5602 147.059 71.5428C147.02 71.5254 146.984 71.5011 146.955 71.4714C146.926 71.4417 146.904 71.4071 146.89 71.3696C146.876 71.3322 146.87 71.2926 146.872 71.2531L148.012 55.14C148.015 55.0961 148.029 55.0533 148.052 55.0148L151.09 49.9967C151.133 49.9275 151.204 49.8763 151.289 49.8543C151.374 49.8323 151.465 49.8413 151.542 49.8794C151.619 49.9174 151.677 49.9814 151.702 50.0574C151.727 50.1334 151.718 50.2154 151.677 50.2855L148.675 55.2449L147.54 71.2914C147.535 71.3678 147.497 71.4395 147.435 71.4919C147.373 71.5443 147.292 71.5736 147.207 71.5736ZM176.953 81.7697L184.737 111.213L180.845 84.1741L176.953 81.7697Z" fill="#242D35"/>
<path d="M184.737 111.514C184.662 111.514 184.589 111.491 184.53 111.449C184.471 111.407 184.429 111.348 184.412 111.283L176.627 81.8398C176.611 81.7806 176.616 81.7185 176.64 81.6617C176.665 81.6049 176.708 81.5561 176.763 81.5217C176.819 81.4872 176.885 81.4688 176.952 81.4688C177.02 81.4687 177.086 81.4871 177.142 81.5215L181.034 83.9258C181.112 83.9742 181.164 84.0506 181.177 84.1358L185.069 111.174C185.075 111.217 185.071 111.26 185.057 111.301C185.043 111.342 185.02 111.38 184.988 111.412C184.957 111.444 184.918 111.47 184.875 111.488C184.831 111.505 184.784 111.514 184.737 111.514L184.737 111.514ZM177.479 82.4605L183.586 105.557L180.532 84.3466L177.479 82.4605ZM98.5997 207.255C98.542 207.255 98.4852 207.242 98.435 207.216C98.3848 207.19 98.3429 207.153 98.3132 207.109C98.2835 207.064 98.2672 207.013 98.2657 206.961C98.2643 206.909 98.2778 206.858 98.305 206.812L108.305 189.933C108.354 189.85 108.442 189.793 108.545 189.778L114.438 188.893L122.597 171.366C122.622 171.311 122.665 171.264 122.72 171.231C122.775 171.199 122.839 171.181 122.905 171.181H154.275L158.31 143.801C158.316 143.757 158.333 143.715 158.359 143.678L166.663 131.922L164.052 95.517C164.049 95.4775 164.055 95.4379 164.069 95.4004C164.083 95.3629 164.106 95.3283 164.135 95.2986C164.164 95.2689 164.199 95.2446 164.238 95.2271C164.278 95.2096 164.32 95.1993 164.364 95.1967C164.408 95.1942 164.452 95.1994 164.494 95.2122C164.535 95.225 164.574 95.245 164.607 95.2711C164.64 95.2972 164.667 95.329 164.686 95.3645C164.705 95.4 164.717 95.4386 164.72 95.4781L167.338 131.981C167.342 132.045 167.324 132.109 167.286 132.163L158.963 143.946L154.9 171.522C154.889 171.594 154.849 171.661 154.788 171.709C154.727 171.757 154.649 171.784 154.568 171.784H123.128L114.984 189.279C114.962 189.326 114.927 189.367 114.883 189.399C114.839 189.431 114.786 189.451 114.73 189.46L108.817 190.348L98.8951 207.095C98.8665 207.144 98.8239 207.184 98.7719 207.212C98.7198 207.24 98.6604 207.255 98.5997 207.255ZM197.036 134.687L201.984 163.717L201.188 138.218L197.036 134.687Z" fill="#242D35"/>
<path d="M201.984 164.019C201.904 164.019 201.827 163.993 201.766 163.946C201.705 163.899 201.665 163.834 201.653 163.763L196.706 134.733C196.695 134.671 196.706 134.607 196.738 134.551C196.769 134.495 196.819 134.449 196.881 134.42C196.943 134.391 197.013 134.38 197.082 134.388C197.151 134.397 197.215 134.425 197.266 134.468L201.418 137.999C201.482 138.054 201.52 138.129 201.522 138.209L202.318 163.709C202.32 163.749 202.312 163.789 202.296 163.827C202.279 163.864 202.255 163.899 202.224 163.928C202.193 163.956 202.155 163.979 202.114 163.995C202.073 164.011 202.028 164.019 201.984 164.019ZM197.515 135.508L201.498 158.882L200.857 138.351L197.515 135.508L197.515 135.508ZM162.143 207.255C162.093 207.255 162.043 207.245 161.998 207.225C161.953 207.206 161.913 207.178 161.882 207.142C161.85 207.107 161.828 207.066 161.817 207.022C161.805 206.978 161.805 206.932 161.816 206.888L163.588 199.703C163.6 199.655 163.625 199.61 163.661 199.572C163.696 199.535 163.742 199.506 163.793 199.488L173.98 195.906L176.619 169.747C176.625 169.689 176.65 169.633 176.69 169.587L185.045 160.121C185.1 160.059 185.18 160.018 185.269 160.009C185.357 160 185.445 160.023 185.515 160.073C185.584 160.123 185.629 160.195 185.639 160.275C185.649 160.354 185.624 160.434 185.568 160.497L177.276 169.892L174.627 196.147C174.622 196.202 174.599 196.256 174.562 196.3C174.524 196.345 174.474 196.38 174.416 196.4L164.202 199.991L162.469 207.019C162.453 207.086 162.411 207.146 162.352 207.189C162.293 207.232 162.219 207.255 162.143 207.255ZM215.812 206.954L214.04 200.909L207.332 197.602L204.167 180.267L210.203 196.811L217.01 199.169L222.268 206.953L215.812 206.954Z" fill="#242D35"/>
<path d="M215.812 207.255C215.738 207.255 215.667 207.233 215.608 207.193C215.55 207.152 215.508 207.095 215.489 207.031L213.753 201.112L207.171 197.867C207.126 197.845 207.088 197.814 207.058 197.776C207.029 197.739 207.009 197.696 207.001 197.651L203.837 180.316C203.823 180.241 203.841 180.164 203.887 180.101C203.934 180.037 204.005 179.992 204.087 179.974C204.169 179.956 204.256 179.966 204.329 180.003C204.403 180.04 204.459 180.101 204.485 180.173L210.471 196.581L217.13 198.888C217.199 198.912 217.257 198.956 217.296 199.013L222.554 206.796C222.585 206.842 222.602 206.894 222.603 206.948C222.604 207.001 222.589 207.054 222.56 207.101C222.531 207.148 222.488 207.186 222.437 207.213C222.386 207.24 222.327 207.255 222.268 207.255L215.812 207.255V207.255ZM207.635 197.408L214.201 200.645C214.281 200.685 214.34 200.752 214.364 200.832L216.07 206.652L221.673 206.652L216.783 199.414L210.083 197.092C210.036 197.076 209.994 197.051 209.96 197.019C209.926 196.986 209.9 196.947 209.885 196.905L205.198 184.059L207.635 197.408V197.408ZM38.981 201.439C38.9256 201.439 38.8711 201.427 38.8223 201.403C38.7736 201.379 38.7321 201.345 38.7016 201.303C38.6712 201.262 38.6526 201.214 38.6477 201.164C38.6428 201.114 38.6517 201.064 38.6736 201.019L40.4456 197.293C40.4821 197.222 40.5481 197.166 40.6295 197.138C40.7109 197.11 40.8012 197.111 40.8814 197.142C40.9615 197.173 41.0251 197.231 41.0586 197.304C41.092 197.376 41.0928 197.458 41.0606 197.531L39.2886 201.256C39.2628 201.31 39.2199 201.357 39.1652 201.389C39.1106 201.422 39.0465 201.439 38.981 201.439ZM67.5881 192.011C67.5351 192.011 67.4829 192 67.4357 191.978C67.3885 191.956 67.3478 191.925 67.3168 191.886C67.2858 191.847 67.2654 191.803 67.2574 191.756C67.2494 191.708 67.2539 191.66 67.2706 191.615L73.7683 173.976C73.7821 173.938 73.804 173.904 73.8328 173.874C73.8615 173.844 73.8965 173.819 73.9358 173.801C73.975 173.784 74.0178 173.773 74.0616 173.77C74.1054 173.767 74.1494 173.772 74.1911 173.785C74.2328 173.797 74.2713 173.817 74.3046 173.843C74.3378 173.869 74.365 173.9 74.3847 173.936C74.4044 173.971 74.4162 174.009 74.4194 174.049C74.4226 174.088 74.4171 174.128 74.4033 174.166L67.9056 191.805C67.8835 191.865 67.8409 191.917 67.784 191.954C67.727 191.991 67.6585 192.011 67.5883 192.011L67.5881 192.011ZM98.7265 149.741L98.5977 175.99L94.426 151.694L98.7265 149.741Z" fill="#242D35"/>
<path d="M98.5974 176.292C98.5175 176.292 98.4404 176.266 98.3798 176.219C98.3192 176.172 98.2792 176.108 98.267 176.036L94.0954 151.74C94.0846 151.677 94.0962 151.612 94.1286 151.556C94.1609 151.499 94.2124 151.453 94.2755 151.425L98.5761 149.472C98.6272 149.449 98.6841 149.438 98.7413 149.44C98.7985 149.442 98.8541 149.457 98.9027 149.485C98.9514 149.512 98.9915 149.55 99.0193 149.595C99.047 149.64 99.0614 149.691 99.0612 149.742L98.9322 175.992C98.9318 176.071 98.8964 176.148 98.8336 176.204C98.7709 176.26 98.6859 176.292 98.5974 176.292ZM94.7937 151.864L98.2817 172.18L98.3896 150.231L94.7937 151.864ZM127.334 131.723C127.288 131.723 127.242 131.714 127.199 131.698C127.157 131.681 127.119 131.657 127.088 131.626C127.056 131.595 127.032 131.559 127.017 131.52C127.002 131.481 126.996 131.439 127 131.397L128.266 117.252C128.269 117.212 128.281 117.174 128.301 117.138C128.321 117.103 128.348 117.072 128.382 117.046C128.415 117.02 128.454 117.001 128.496 116.989C128.538 116.977 128.582 116.972 128.626 116.976C128.714 116.982 128.796 117.02 128.854 117.081C128.911 117.142 128.94 117.221 128.933 117.3L127.667 131.446C127.66 131.521 127.622 131.592 127.56 131.643C127.499 131.694 127.418 131.723 127.334 131.723H127.334ZM232.064 207.255H16.5941C16.5053 207.255 16.4202 207.223 16.3575 207.167C16.2948 207.11 16.2595 207.034 16.2595 206.954C16.2595 206.874 16.2948 206.797 16.3575 206.74C16.4202 206.684 16.5053 206.652 16.5941 206.652H232.064C232.153 206.652 232.238 206.684 232.3 206.74C232.363 206.797 232.398 206.874 232.398 206.954C232.398 207.034 232.363 207.11 232.3 207.167C232.238 207.223 232.153 207.255 232.064 207.255Z" fill="#242D35"/>
</g>
<g clip-path="url(#clip3_2015_6634)">
<path d="M154.135 41.8477H92.5465C90.4338 37.4423 98.5645 29.269 108.104 34.7179C111.753 20.2843 138.258 20.4582 140.626 36.6887C147.541 30.3125 156.184 37.0945 154.135 41.8477Z" fill="white"/>
</g>
<g clip-path="url(#clip4_2015_6634)">
<path d="M189.907 28.7178L181.237 35.0691L139.257 65.8211L133.206 51.1638L124.727 30.6272L189.907 28.7178Z" fill="url(#paint2_linear_2015_6634)"/>
<path d="M139.257 66.1227C139.189 66.1227 139.123 66.1039 139.067 66.0688C139.011 66.0338 138.968 65.9842 138.944 65.9267L124.414 30.7328C124.396 30.6879 124.389 30.6397 124.396 30.5922C124.402 30.5446 124.42 30.4991 124.45 30.4594C124.479 30.4196 124.519 30.3867 124.565 30.3635C124.612 30.3403 124.663 30.3274 124.716 30.3259L189.896 28.4162C189.966 28.4138 190.035 28.4315 190.094 28.4668C190.152 28.502 190.196 28.553 190.22 28.6125C190.27 28.7339 190.229 28.8705 190.117 28.9521L139.467 66.0555C139.407 66.0995 139.333 66.1227 139.257 66.1227ZM125.202 30.9153L139.407 65.3226L188.926 29.0483L125.202 30.9153Z" fill="#242D35"/>
<path d="M181.237 35.0691L139.257 65.8211L133.206 51.1638C135.883 53.0431 139.631 53.6841 142.849 52.6766C146.352 51.5816 149.073 48.8019 152.703 48.1322C154.333 47.8336 156.064 47.9799 157.62 47.4535C159.397 46.8517 160.676 45.4701 162.022 44.262C167.22 39.5999 174.201 37.0736 181.237 35.0691Z" fill="#242D35"/>
<path d="M139.257 66.1226C139.189 66.1226 139.123 66.1038 139.067 66.0687C139.011 66.0337 138.968 65.9841 138.944 65.9266L132.893 51.2691C132.867 51.2076 132.865 51.1403 132.886 51.0773C132.906 51.0144 132.949 50.9593 133.008 50.9204C133.066 50.8815 133.137 50.861 133.21 50.8619C133.283 50.8628 133.353 50.885 133.41 50.9254C136.036 52.768 139.698 53.3437 142.74 52.3914C144.27 51.9131 145.685 51.083 147.053 50.2803C148.782 49.2663 150.569 48.2177 152.636 47.8364C153.304 47.7141 153.988 47.6642 154.65 47.6159C155.657 47.5426 156.609 47.4732 157.502 47.1708C158.927 46.6885 160.053 45.6461 161.142 44.6378C161.357 44.4394 161.57 44.2413 161.786 44.0478C167.192 39.1998 174.601 36.643 181.136 34.7813C181.21 34.7604 181.29 34.7634 181.362 34.7899C181.434 34.8164 181.493 34.8647 181.53 34.9265C181.567 34.9882 181.579 35.0596 181.564 35.1284C181.548 35.1972 181.507 35.259 181.447 35.3033L139.467 66.0554C139.407 66.0994 139.333 66.1226 139.257 66.1226ZM133.891 51.9611L139.407 65.3224L179.637 35.8523C173.623 37.6515 167.1 40.1322 162.257 44.476C162.043 44.6689 161.831 44.8633 161.62 45.0592C160.48 46.1147 159.301 47.2061 157.737 47.7358C156.756 48.0678 155.713 48.1438 154.704 48.2173C154.062 48.2642 153.398 48.3126 152.77 48.4277C150.827 48.786 149.17 49.7576 147.417 50.7863C146.015 51.6087 144.565 52.4593 142.959 52.9615C140.041 53.8754 136.592 53.4749 133.891 51.9612L133.891 51.9611Z" fill="#242D35"/>
<path d="M161.07 115.182L125.814 29.793C125.55 29.1517 124.76 28.8258 124.05 29.065L124.05 29.0651C123.34 29.3043 122.979 30.0181 123.244 30.6594L158.5 116.048C158.764 116.69 159.554 117.016 160.264 116.776L160.264 116.776C160.974 116.537 161.335 115.823 161.07 115.182Z" fill="white"/>
<path d="M159.783 117.157C159.542 117.157 159.302 117.11 159.076 117.017C158.872 116.933 158.688 116.814 158.536 116.666C158.383 116.518 158.264 116.344 158.186 116.154L122.931 30.7647C122.852 30.5752 122.816 30.3734 122.824 30.1711C122.832 29.9688 122.884 29.7699 122.978 29.5859C123.07 29.4015 123.203 29.2356 123.367 29.0976C123.53 28.9596 123.723 28.8524 123.933 28.7822C124.814 28.4849 125.799 28.8914 126.127 29.6874L161.383 115.076C161.711 115.873 161.262 116.762 160.381 117.059C160.186 117.125 159.985 117.157 159.783 117.157ZM124.528 29.2882C124.408 29.2882 124.286 29.3072 124.166 29.3475C123.907 29.435 123.7 29.6086 123.585 29.8365C123.47 30.0644 123.46 30.3191 123.557 30.5538L158.812 115.943C158.859 116.059 158.932 116.164 159.025 116.255C159.117 116.345 159.229 116.417 159.353 116.468C159.477 116.52 159.611 116.548 159.748 116.553C159.884 116.557 160.02 116.537 160.147 116.494C160.405 116.406 160.614 116.231 160.728 116.004C160.842 115.778 160.853 115.52 160.757 115.287L125.502 29.8983C125.428 29.7192 125.295 29.5648 125.121 29.4558C124.947 29.3467 124.74 29.2883 124.528 29.2882Z" fill="#242D35"/>
</g>
<g clip-path="url(#clip5_2015_6634)">
<path d="M57.4063 196.447L55.7491 202.349L65.8669 203.373L69.1813 194.4L57.4063 196.447Z" fill="url(#paint3_linear_2015_6634)"/>
<path d="M65.867 203.674C65.8547 203.674 65.8423 203.674 65.8296 203.672L55.712 202.649C55.6646 202.644 55.6188 202.63 55.5778 202.608C55.5368 202.586 55.5015 202.556 55.4743 202.521C55.4472 202.486 55.4287 202.445 55.4202 202.403C55.4117 202.36 55.4134 202.317 55.4252 202.275L57.0823 196.372C57.098 196.317 57.1308 196.266 57.177 196.227C57.2232 196.188 57.2809 196.161 57.3433 196.15L69.1182 194.104C69.1756 194.094 69.2348 194.098 69.29 194.115C69.3452 194.132 69.3945 194.162 69.433 194.201C69.4715 194.241 69.4978 194.289 69.5093 194.341C69.5209 194.392 69.5172 194.446 69.4987 194.496L66.1843 203.468C66.1621 203.528 66.1196 203.58 66.0627 203.617C66.0058 203.654 65.9375 203.674 65.8674 203.674H65.867ZM56.1674 202.088L65.6352 203.046L68.6832 194.794L57.6783 196.707L56.1674 202.088V202.088Z" fill="#242D35"/>
<path d="M139.046 162.092L138.173 166.578L127.62 167.09L128.492 160.006L139.046 162.092Z" fill="url(#paint4_linear_2015_6634)"/>
<path d="M127.62 167.391C127.573 167.391 127.526 167.382 127.483 167.365C127.44 167.348 127.402 167.322 127.371 167.291C127.339 167.259 127.316 167.222 127.301 167.182C127.287 167.141 127.282 167.098 127.288 167.056L128.16 159.973C128.165 159.931 128.18 159.89 128.203 159.854C128.227 159.817 128.259 159.786 128.297 159.761C128.335 159.737 128.379 159.719 128.424 159.711C128.47 159.702 128.518 159.703 128.563 159.711L139.117 161.797C139.202 161.814 139.275 161.859 139.323 161.924C139.371 161.989 139.39 162.067 139.375 162.144L138.503 166.63C138.49 166.697 138.452 166.759 138.395 166.804C138.339 166.849 138.267 166.876 138.191 166.879L127.638 167.391C127.632 167.391 127.626 167.391 127.62 167.391H127.62ZM128.783 160.373L127.995 166.769L137.89 166.29L138.661 162.325L128.783 160.373ZM56.4556 199.833C58.2479 199.833 59.3252 201.562 61.1133 201.72C62.9014 201.877 65.2824 200.744 66.8393 200.74C65.8669 203.372 66.749 203.803 66.3356 205.057C66.1552 205.605 65.7835 206.085 65.2759 206.427C64.7683 206.769 64.1519 206.953 63.5186 206.954H42.5664C41.8118 206.954 41.3059 206.254 41.6095 205.631L41.8275 205.183C42.2344 204.348 42.897 203.636 43.7374 203.129C44.5778 202.622 45.5612 202.342 46.5718 202.322L49.3935 202.277C50.9763 202.252 52.5006 201.746 53.7338 200.851C54.4686 200.317 55.4206 199.833 56.4556 199.833V199.833Z" fill="#242D35"/>
<path d="M63.5186 207.255H42.5664C42.0987 207.255 41.6669 207.044 41.4113 206.691C41.1557 206.337 41.1152 205.896 41.3034 205.509L41.5214 205.062C42.4008 203.257 44.3803 202.064 46.5644 202.021L49.3877 201.975C50.8809 201.952 52.35 201.469 53.5242 200.616C54.5156 199.896 55.5017 199.531 56.4556 199.531C57.4913 199.531 58.2887 200.035 59.0597 200.522C59.7351 200.948 60.373 201.351 61.1459 201.419C62.0713 201.5 63.2041 201.203 64.2979 200.914C65.2231 200.67 66.0971 200.44 66.8383 200.438H66.8393C66.8923 200.438 66.9445 200.449 66.9917 200.471C67.0388 200.493 67.0796 200.525 67.1105 200.563C67.1415 200.602 67.1618 200.647 67.1698 200.694C67.1778 200.742 67.1732 200.79 67.1564 200.835C66.5936 202.359 66.6738 203.088 66.7449 203.73C66.7933 204.171 66.8391 204.587 66.6561 205.143C66.2462 206.386 64.9559 207.255 63.5184 207.255L63.5186 207.255ZM56.4556 200.134C55.658 200.134 54.813 200.455 53.9435 201.086C52.6541 202.022 51.0403 202.553 49.3994 202.579L46.5776 202.624C44.6536 202.662 42.9087 203.714 42.1336 205.305L41.9156 205.752C41.8172 205.954 41.8374 206.176 41.9711 206.361C42.1049 206.546 42.3219 206.652 42.5664 206.652H63.5186C64.6624 206.652 65.689 205.961 66.0153 204.971C66.1611 204.529 66.1251 204.203 66.0797 203.79C66.0126 203.183 65.9307 202.44 66.3732 201.074C65.8145 201.143 65.1647 201.315 64.4857 201.493C63.3305 201.798 62.1347 202.113 61.081 202.02C60.1336 201.936 59.3927 201.469 58.6764 201.016C57.9585 200.563 57.2806 200.134 56.4558 200.134L56.4556 200.134ZM127.817 165.488C127.572 166.668 127.205 167.611 126.78 168.556C126.355 169.5 125.635 171.448 128.448 171.448H151.368C152.034 171.448 152.468 170.816 152.172 170.278L151.55 169.148C151.244 168.591 150.794 168.11 150.237 167.744C149.681 167.378 149.035 167.138 148.354 167.046L143.226 166.349C141.843 166.161 140.59 165.566 139.534 164.739C139.298 164.554 139.006 164.424 138.653 164.424C137.443 164.424 134.957 165.545 133.649 165.545C131.555 165.545 128.219 163.548 127.817 165.488L127.817 165.488Z" fill="#242D35"/>
<path d="M151.368 171.75H128.448C127.414 171.75 126.701 171.495 126.327 170.994C125.765 170.241 126.14 169.177 126.47 168.442C126.849 167.6 127.235 166.653 127.488 165.433C127.574 165.017 127.786 164.714 128.117 164.533C128.871 164.12 130.051 164.443 131.301 164.785C132.124 165.01 132.974 165.243 133.649 165.243C134.262 165.243 135.215 164.957 136.137 164.681C137.098 164.394 138.006 164.122 138.653 164.122C139.053 164.122 139.423 164.253 139.753 164.511C140.825 165.35 142.043 165.883 143.275 166.05L148.404 166.747C149.138 166.847 149.834 167.105 150.434 167.5C151.034 167.894 151.519 168.413 151.85 169.013L152.471 170.143C152.565 170.313 152.609 170.501 152.6 170.69C152.59 170.879 152.526 171.063 152.415 171.223C152.305 171.385 152.151 171.518 151.967 171.61C151.784 171.702 151.578 171.75 151.368 171.749V171.75ZM128.145 165.544C127.881 166.816 127.482 167.798 127.09 168.669C126.932 169.019 126.453 170.083 126.882 170.657C127.124 170.982 127.651 171.146 128.448 171.146H151.368C151.464 171.147 151.559 171.125 151.643 171.083C151.727 171.041 151.797 170.98 151.847 170.906C151.898 170.832 151.928 170.748 151.932 170.662C151.937 170.575 151.916 170.489 151.872 170.412L151.251 169.282C150.968 168.769 150.553 168.325 150.04 167.988C149.527 167.65 148.932 167.43 148.304 167.344L143.176 166.647C141.818 166.462 140.483 165.881 139.315 164.967C139.107 164.804 138.891 164.725 138.653 164.725C138.114 164.725 137.216 164.994 136.348 165.254C135.375 165.545 134.369 165.847 133.648 165.847C132.875 165.847 131.976 165.601 131.107 165.362C130.053 165.074 128.962 164.776 128.463 165.049C128.3 165.139 128.196 165.3 128.145 165.544Z" fill="#242D35"/>
<path d="M73.2153 121.105C74.9598 120.594 76.3117 119.059 77.5328 118.823C78.7538 118.587 78.7786 120.948 78.7786 120.948L74.8725 122.246L73.2153 121.105V121.105Z" fill="url(#paint5_linear_2015_6634)"/>
<path d="M74.8724 122.548C74.8 122.548 74.7288 122.527 74.6696 122.486L73.0124 121.345C72.9638 121.312 72.9264 121.267 72.904 121.216C72.8816 121.165 72.8752 121.109 72.8854 121.054C72.8957 121 72.9222 120.95 72.9621 120.908C73.002 120.866 73.0538 120.835 73.1119 120.818C73.9586 120.57 74.7097 120.064 75.4359 119.575C76.137 119.102 76.7995 118.656 77.4626 118.528C77.7802 118.466 78.0776 118.528 78.3225 118.705C79.0736 119.247 79.1111 120.773 79.1129 120.945C79.1136 121.008 79.0929 121.068 79.0537 121.12C79.0145 121.171 78.9588 121.21 78.8941 121.231L74.988 122.53C74.951 122.542 74.9119 122.548 74.8725 122.548L74.8724 122.548ZM73.8874 121.188L74.929 121.906L78.4353 120.74C78.3979 120.19 78.2398 119.417 77.9042 119.175C77.8166 119.112 77.7235 119.094 77.6025 119.118C77.0824 119.218 76.4769 119.626 75.8358 120.058C75.252 120.451 74.6062 120.886 73.8874 121.188V121.188Z" fill="#242D35"/>
<path d="M135.566 83.5702C137.047 82.8432 138.74 81.931 139.525 81.3407C140.31 80.7504 141.255 79.9719 141.989 79.5699C143.821 78.5664 144.789 79.3234 146.797 78.5369C148.531 77.858 148.629 79.1271 147.353 79.747C148.444 79.6093 148.727 80.1208 148.226 80.8686C149.12 80.7504 149.643 81.4785 148.989 82.0098C150.068 82.1279 149.812 82.9895 148.067 83.9281C144.868 85.6498 143.112 85.3104 141.728 86.0336C139.787 87.0468 139.133 87.5979 137.432 89.2112C135.829 87.6469 135.01 86.02 135.566 83.5702Z" fill="url(#paint6_linear_2015_6634)"/>
<path d="M137.432 89.5129H137.429C137.384 89.5126 137.339 89.5038 137.297 89.4871C137.255 89.4705 137.217 89.4462 137.186 89.4159C135.299 87.574 134.717 85.8077 135.238 83.5096C135.248 83.4665 135.268 83.4259 135.297 83.3906C135.326 83.3553 135.363 83.3261 135.406 83.3052C136.776 82.6329 138.521 81.703 139.311 81.109C139.493 80.9723 139.683 80.8254 139.878 80.6756C140.542 80.1631 141.23 79.6332 141.816 79.312C142.868 78.7355 143.678 78.699 144.462 78.6637C145.113 78.6344 145.786 78.6039 146.664 78.26C147.975 77.7466 148.381 78.2707 148.473 78.444C148.642 78.7573 148.53 79.1523 148.217 79.4983C148.443 79.5727 148.579 79.6913 148.662 79.8044C148.76 79.938 148.87 80.1939 148.736 80.5867C149.091 80.6593 149.383 80.8508 149.526 81.1269C149.646 81.3568 149.645 81.608 149.534 81.8404C149.823 81.977 149.92 82.1794 149.951 82.3132C150.079 82.8587 149.471 83.5242 148.239 84.1872C146.244 85.2605 144.811 85.5487 143.659 85.7804C142.951 85.9226 142.392 86.035 141.895 86.2946C140.035 87.2656 139.396 87.7859 137.674 89.4192C137.643 89.4488 137.605 89.4723 137.564 89.4884C137.522 89.5045 137.477 89.5128 137.432 89.5129ZM135.864 83.7671C135.457 85.7132 135.919 87.1904 137.439 88.7671C139.031 87.267 139.719 86.7337 141.56 85.7722C142.146 85.4663 142.78 85.339 143.513 85.1913C144.618 84.9691 145.994 84.6926 147.896 83.6689C149.03 83.0592 149.329 82.5763 149.297 82.4381C149.286 82.3916 149.163 82.3325 148.949 82.3091C148.885 82.3021 148.825 82.2788 148.775 82.2418C148.726 82.2048 148.689 82.1557 148.67 82.1005C148.651 82.0453 148.649 81.9862 148.666 81.9303C148.683 81.8744 148.718 81.8241 148.765 81.7854C148.861 81.7074 149.009 81.5517 148.921 81.3834C148.848 81.2426 148.619 81.1215 148.274 81.1669C148.211 81.1752 148.147 81.1673 148.089 81.144C148.032 81.1207 147.982 81.083 147.947 81.0353C147.912 80.9877 147.893 80.932 147.891 80.8747C147.89 80.8175 147.907 80.7612 147.94 80.7122C148.146 80.4042 148.157 80.2096 148.104 80.1366C148.048 80.0604 147.83 79.9911 147.4 80.0455C147.322 80.0556 147.243 80.0407 147.176 80.0032C147.109 79.9657 147.06 79.9081 147.036 79.8406C147.011 79.7734 147.014 79.7005 147.043 79.6348C147.072 79.5691 147.126 79.5147 147.195 79.4811C147.755 79.2085 147.936 78.8269 147.872 78.7071C147.835 78.6394 147.548 78.5716 146.93 78.8135C145.94 79.201 145.173 79.2357 144.495 79.2662C143.731 79.3007 143.07 79.3304 142.163 79.8276C141.623 80.1234 140.957 80.6372 140.312 81.1341C140.116 81.2856 139.923 81.434 139.739 81.5722C138.76 82.3085 136.673 83.3666 135.864 83.7669V83.7671Z" fill="#242D35"/>
<path d="M131.784 85.4136C133.093 84.8544 135.566 83.5701 135.566 83.5701L140.615 90.9426L135.742 93.6186L131.457 89.1028L131.784 85.4135L131.784 85.4136Z" fill="white"/>
<path d="M135.742 93.9204C135.694 93.9204 135.646 93.911 135.602 93.8928C135.558 93.8746 135.519 93.8481 135.488 93.8149L131.203 89.2992C131.175 89.269 131.153 89.234 131.139 89.1962C131.126 89.1584 131.12 89.1186 131.124 89.079L131.451 85.3896C131.456 85.3367 131.476 85.2859 131.509 85.2422C131.543 85.1986 131.588 85.1636 131.641 85.141C132.923 84.5934 135.374 83.3214 135.399 83.3088C135.474 83.2697 135.563 83.2585 135.648 83.2777C135.732 83.297 135.805 83.345 135.85 83.4117L140.9 90.7842C140.923 90.8181 140.939 90.8557 140.946 90.895C140.953 90.9343 140.951 90.9745 140.941 91.0132C140.93 91.0519 140.912 91.0884 140.886 91.1206C140.86 91.1527 140.827 91.18 140.789 91.2007L135.916 93.8766C135.864 93.9054 135.804 93.9205 135.742 93.9205V93.9204ZM131.802 89.002L135.811 93.2275L140.154 90.8427L135.451 83.9767C134.799 84.3116 133.172 85.1392 132.102 85.6103L131.802 89.0019L131.802 89.002Z" fill="#242D35"/>
<path d="M72.3213 87.6567C76.0718 86.4958 78.3832 86.2203 81.7193 85.8859C85.0554 85.5514 95.8709 88.4635 95.8709 88.4635L108.082 118.922L86.887 124.038L70.9147 96.2552L72.3211 87.6567H72.3213Z" fill="white"/>
<path d="M86.8872 124.34C86.8259 124.34 86.7659 124.325 86.7136 124.296C86.6612 124.267 86.6186 124.226 86.5904 124.177L70.6179 96.3943C70.5856 96.338 70.5737 96.274 70.584 96.2113L71.9904 87.6128C71.9994 87.558 72.0248 87.5065 72.064 87.464C72.1032 87.4214 72.1546 87.3894 72.2126 87.3714C75.9384 86.218 78.2759 85.9275 81.6824 85.5861C85.0456 85.2465 95.5222 88.0546 95.9666 88.1744C96.0681 88.2017 96.1493 88.2709 96.1854 88.3607L108.396 118.819C108.412 118.859 108.418 118.901 108.415 118.942C108.412 118.984 108.4 119.025 108.378 119.062C108.357 119.099 108.327 119.131 108.291 119.157C108.255 119.184 108.213 119.203 108.168 119.213L86.9736 124.329C86.9454 124.336 86.9164 124.34 86.8872 124.34V124.34ZM71.2612 96.203L87.0602 123.684L107.644 118.716L95.6142 88.7099C94.2574 88.3512 84.7691 85.8846 81.7561 86.1859C78.4648 86.5159 76.2429 86.7769 72.622 87.8831L71.2612 96.203Z" fill="#242D35"/>
<path d="M80.7174 84.7642L77.482 80.5471C80.6725 79.0147 80.831 75.9286 80.4353 73.8479C81.0072 73.6082 81.6339 73.2554 81.4796 72.6832C81.391 72.3546 80.891 72.1026 79.9682 72.249C79.1749 70.3868 76.0165 65.6148 71.1439 66.6427C66.1069 67.7051 65.976 74.5525 65.976 74.5525L69.0505 77.5039L71.7325 86.4173L79.8441 87.2732L80.7174 84.7645V84.7642Z" fill="url(#paint7_linear_2015_6634)"/>
<path d="M79.8441 87.5747C79.8313 87.5747 79.8182 87.5741 79.8052 87.5726L71.6937 86.7167C71.6274 86.7097 71.565 86.6849 71.5144 86.6456C71.4639 86.6063 71.4275 86.5542 71.41 86.4961L68.7498 77.6555L65.7324 74.759C65.6728 74.7018 65.6402 74.6258 65.6417 74.5472C65.6472 74.258 65.8371 67.4521 71.0678 66.3487C75.9647 65.3153 79.2013 69.8244 80.1805 71.9179C81.2091 71.8251 81.6988 72.2197 81.8046 72.6116C82.006 73.3599 81.2648 73.8064 80.8044 74.0215C81.0623 75.6047 81.1519 78.9044 77.9651 80.6464L80.9926 84.5925C81.0515 84.6692 81.0675 84.7659 81.0367 84.8547L80.1633 87.3635C80.1419 87.4247 80.0995 87.4782 80.0422 87.5162C79.9848 87.5542 79.9156 87.5747 79.8445 87.5747H79.8441ZM71.9958 86.1412L79.6079 86.9443L80.3495 84.8146L77.207 80.7188C77.1801 80.6838 77.1618 80.6441 77.1531 80.6022C77.1445 80.5603 77.1458 80.5173 77.1569 80.4759C77.1681 80.4345 77.1888 80.3958 77.2177 80.3621C77.2467 80.3285 77.2832 80.3007 77.3248 80.2807C80.5096 78.751 80.4341 75.6258 80.1056 73.899C80.0932 73.8337 80.1049 73.7665 80.139 73.7079C80.1731 73.6492 80.2276 73.6023 80.2942 73.5744C81.1553 73.2134 81.2064 72.9465 81.1546 72.7543C81.1158 72.6107 80.7746 72.4267 80.0258 72.546C79.9494 72.5583 79.8707 72.5462 79.8031 72.5117C79.7355 72.4772 79.6834 72.4226 79.6557 72.3571C78.873 70.5193 75.8331 65.9629 71.2198 66.9362C66.8522 67.8574 66.365 73.5365 66.3154 74.4378L69.2938 77.2971C69.3314 77.3331 69.3585 77.3769 69.3728 77.4247L71.9958 86.1412Z" fill="#242D35"/>
<path d="M76.761 73.0064C77.753 72.7022 78.4048 72.051 78.2168 71.552C78.0289 71.053 77.0723 70.8951 76.0803 71.1994C75.0883 71.5036 74.4365 72.1548 74.6245 72.6538C74.8124 73.1528 75.769 73.3107 76.761 73.0064Z" fill="white"/>
<path d="M75.7873 73.4619C75.0594 73.4619 74.4797 73.2067 74.3078 72.7508C74.0567 72.0839 74.7881 71.2769 75.9727 70.9136C77.1576 70.5499 78.282 70.7881 78.5333 71.4549C78.7844 72.1216 78.0532 72.9287 76.8684 73.2921C76.4936 73.4072 76.1243 73.4619 75.7871 73.4619H75.7873ZM77.0677 71.3459C76.8062 71.3459 76.5033 71.3882 76.1879 71.485C75.3411 71.7448 74.8311 72.2651 74.9409 72.5567C75.0509 72.848 75.8064 72.9806 76.6533 72.7208C77.5 72.4609 78.0101 71.9406 77.9002 71.6492C77.8312 71.4662 77.5079 71.3459 77.0677 71.3459Z" fill="#242D35"/>
<path d="M77.3893 72.2995C77.7291 72.2995 78.0045 72.0509 78.0045 71.7443C78.0045 71.4378 77.7291 71.1892 77.3893 71.1892C77.0496 71.1892 76.7741 71.4378 76.7741 71.7443C76.7741 72.0509 77.0496 72.2995 77.3893 72.2995Z" fill="#242D35"/>
<path d="M78.1991 76.8782C77.4718 76.8782 76.7034 76.6402 76.1924 76.2089C76.1276 76.1542 76.0895 76.0786 76.0865 75.9986C76.0836 75.9186 76.1159 75.8409 76.1765 75.7824C76.2371 75.724 76.3209 75.6896 76.4095 75.6869C76.4981 75.6843 76.5843 75.7134 76.6491 75.7681C77.224 76.2534 78.3123 76.4228 78.9783 76.1303C79.0581 76.0954 79.15 76.0905 79.2338 76.1166C79.3175 76.1428 79.3864 76.1978 79.4254 76.2697C79.5059 76.4195 79.4369 76.6 79.2709 76.673C78.9543 76.812 78.5825 76.8782 78.1991 76.8782ZM77.4818 80.5469C76.7258 80.9667 74.8506 80.9667 73.7603 80.5469C73.2879 80.365 72.6264 81.0059 74.1092 81.4585C75.0571 81.7478 76.0299 81.4953 76.4642 82.1275C77.1401 83.1114 78.6582 83.333 79.1816 82.7623L77.4818 80.5469Z" fill="#242D35"/>
<path d="M78.307 83.374C78.259 83.374 78.2105 83.3724 78.1612 83.3694C77.3643 83.3204 76.6051 82.9056 76.18 82.2868C76.0006 82.0256 75.6705 81.9825 75.1024 81.9293C74.7665 81.8976 74.3861 81.8618 74.0022 81.7446C73.3188 81.536 72.9387 81.2551 72.8721 80.9095C72.8322 80.701 72.9213 80.4959 73.1107 80.3604C73.3272 80.2059 73.6336 80.1702 73.8917 80.2694C74.8824 80.6509 76.6379 80.6615 77.3068 80.2901C77.3795 80.2495 77.4668 80.2357 77.5506 80.2515C77.6344 80.2674 77.7082 80.3116 77.7568 80.3752L79.4564 82.5907C79.498 82.6448 79.5187 82.7097 79.5156 82.7754C79.5124 82.8412 79.4856 82.9042 79.4391 82.9549C79.1918 83.2245 78.7844 83.3738 78.307 83.3738V83.374ZM73.5405 80.8256C73.5808 80.8873 73.751 81.0309 74.2164 81.173C74.5297 81.2687 74.856 81.2993 75.1718 81.329C75.7693 81.3851 76.3873 81.4434 76.7484 81.9688C77.1237 82.515 77.7687 82.7402 78.2068 82.7672C78.4064 82.7794 78.5875 82.7549 78.7264 82.6993L77.3701 80.9312C76.4207 81.2694 74.6993 81.2362 73.6293 80.8246C73.6152 80.8194 73.6001 80.8168 73.5848 80.817C73.5696 80.8172 73.5544 80.8201 73.5405 80.8256Z" fill="#242D35"/>
<path d="M145.063 128.764C144.987 129.675 144.707 131.515 144.31 133.885C144.291 133.997 144.271 134.111 144.251 134.226C142.593 143.998 139.045 162.091 139.045 162.091H125.962C125.962 162.091 128.318 140.016 128.055 131.633L99.1424 129.862L71.7977 196.446H57.4057L79.1249 122.778L107.412 115.223C107.412 115.223 114.959 115.591 122.829 116.397C124.035 116.521 125.123 116.632 126.114 116.733C129.461 117.076 131.678 117.305 133.376 117.506C142.71 118.613 145.456 124.125 145.063 128.764Z" fill="url(#paint8_linear_2015_6634)"/>
<path d="M145.063 128.764C144.987 129.675 144.707 131.515 144.31 133.885C144.291 133.997 144.271 134.111 144.251 134.226C142.481 132.175 143.754 129.322 142.22 127.64C141.758 127.132 141.093 126.795 140.643 126.278C140.047 125.593 139.899 124.683 139.56 123.869C137.723 119.449 132.445 120.155 130.994 120.078C127.167 119.879 127.014 118.044 126.114 116.733C129.461 117.076 131.678 117.305 133.376 117.506C142.71 118.613 145.456 124.125 145.063 128.764ZM57.4063 196.447L79.517 122.07L81.7195 121.638L58.998 196.447H57.4063Z" fill="white"/>
<path d="M71.798 196.748H57.4065C57.3553 196.748 57.3048 196.738 57.2589 196.717C57.213 196.697 57.1729 196.667 57.1417 196.63C57.1105 196.594 57.089 196.551 57.0789 196.506C57.0688 196.461 57.0703 196.414 57.0834 196.369L78.8015 122.701C78.8161 122.651 78.8448 122.606 78.8848 122.568C78.9248 122.531 78.9747 122.504 79.0297 122.49L107.317 114.934C107.355 114.924 107.396 114.92 107.435 114.922C107.601 114.933 124.054 115.98 132.024 116.94C142.065 118.151 146.017 122.093 145.238 130.122C144.793 134.717 139.429 161.871 139.375 162.145C139.361 162.215 139.32 162.278 139.26 162.323C139.2 162.369 139.124 162.394 139.046 162.394H125.962C125.916 162.394 125.87 162.385 125.827 162.368C125.784 162.351 125.746 162.326 125.715 162.295C125.684 162.264 125.66 162.227 125.645 162.187C125.63 162.147 125.625 162.105 125.629 162.063C125.653 161.845 127.929 140.383 127.729 131.916L99.3684 130.179L72.1115 196.551C72.0878 196.609 72.045 196.659 71.989 196.694C71.933 196.729 71.8663 196.748 71.798 196.748ZM57.8415 196.145H71.5655L98.8284 129.757C98.8531 129.696 98.8993 129.644 98.96 129.608C99.0207 129.573 99.0926 129.556 99.1646 129.561L128.079 131.332C128.161 131.337 128.239 131.37 128.297 131.424C128.354 131.478 128.388 131.55 128.39 131.624C128.632 139.369 126.621 158.998 126.33 161.79H138.766C139.309 159.034 144.152 134.403 144.572 130.069C145.322 122.341 141.661 118.711 131.935 117.538C124.23 116.609 108.553 115.598 107.449 115.528L79.3996 123.02L57.8415 196.145Z" fill="#242D35"/>
<path d="M78.4832 120.682L107.169 113.507L107.941 116.021L79.2555 123.196L78.4832 120.682Z" fill="url(#paint9_linear_2015_6634)"/>
<path d="M79.2557 123.498C79.1826 123.498 79.1115 123.476 79.0533 123.436C78.9951 123.396 78.9531 123.34 78.9335 123.276L78.1612 120.762C78.1494 120.724 78.1461 120.684 78.1514 120.645C78.1568 120.605 78.1707 120.567 78.1923 120.533C78.214 120.498 78.2429 120.468 78.2776 120.444C78.3122 120.419 78.3519 120.401 78.3942 120.391L107.08 113.216C107.165 113.195 107.257 113.205 107.334 113.244C107.411 113.284 107.468 113.349 107.492 113.426L108.264 115.94C108.276 115.979 108.279 116.019 108.274 116.058C108.268 116.097 108.254 116.135 108.233 116.17C108.211 116.204 108.182 116.235 108.148 116.259C108.113 116.283 108.073 116.301 108.031 116.312L79.3451 123.487C79.316 123.494 79.2859 123.498 79.2557 123.498ZM78.8951 120.892L79.4889 122.825L107.53 115.811L106.936 113.878L78.8951 120.892Z" fill="#242D35"/>
<path d="M94.1472 116.764L99.2393 115.49L100.012 118.005L94.9194 119.278L94.1472 116.764Z" fill="white"/>
<path d="M94.9196 119.58C94.8464 119.58 94.7754 119.558 94.7172 119.518C94.659 119.478 94.617 119.422 94.5974 119.359L93.8251 116.844C93.8133 116.806 93.81 116.766 93.8153 116.727C93.8207 116.687 93.8345 116.649 93.8562 116.615C93.8778 116.58 93.9068 116.55 93.9415 116.526C93.9761 116.501 94.0158 116.483 94.0581 116.473L99.1502 115.199C99.1926 115.189 99.2368 115.186 99.2804 115.19C99.324 115.195 99.3661 115.208 99.4044 115.227C99.4426 115.247 99.4762 115.273 99.5032 115.304C99.5302 115.336 99.5501 115.371 99.5618 115.41L100.334 117.924C100.358 118.001 100.346 118.084 100.303 118.153C100.259 118.223 100.186 118.274 100.101 118.295L95.009 119.569C94.9799 119.576 94.9498 119.58 94.9196 119.58ZM94.559 116.974L95.1528 118.907L99.6003 117.794L99.0066 115.862L94.5591 116.974H94.559ZM93.647 132.112C93.5694 132.112 93.4941 132.088 93.434 132.044C93.374 131.999 93.3329 131.937 93.3179 131.869C93.3029 131.8 93.3148 131.729 93.3517 131.667C93.3886 131.605 93.4481 131.557 93.52 131.531L107.166 126.482C107.206 126.467 107.25 126.459 107.294 126.459C107.338 126.459 107.381 126.467 107.422 126.483C107.462 126.498 107.499 126.52 107.53 126.548C107.561 126.577 107.585 126.61 107.602 126.647C107.619 126.683 107.627 126.723 107.627 126.762C107.627 126.802 107.618 126.841 107.601 126.878C107.584 126.914 107.559 126.947 107.528 126.975C107.497 127.003 107.46 127.025 107.419 127.04L93.7736 132.089C93.7321 132.105 93.6892 132.112 93.6469 132.112H93.647Z" fill="#242D35"/>
<path d="M102.02 128.925C101.953 128.925 101.888 128.906 101.833 128.873C101.777 128.839 101.735 128.791 101.71 128.735L97.2692 118.725C97.2375 118.651 97.2394 118.569 97.2745 118.496C97.3097 118.423 97.3751 118.366 97.4568 118.336C97.5384 118.307 97.6297 118.308 97.7108 118.338C97.7918 118.369 97.8562 118.427 97.8899 118.501L102.331 128.51C102.351 128.556 102.359 128.606 102.353 128.655C102.347 128.704 102.328 128.751 102.297 128.792C102.267 128.833 102.225 128.866 102.177 128.889C102.129 128.912 102.075 128.925 102.02 128.925H102.02Z" fill="#242D35"/>
<path d="M96.3942 126.8C96.3273 126.799 96.262 126.781 96.2067 126.747C96.1513 126.714 96.1085 126.665 96.0838 126.609L93.0611 119.777C93.0448 119.74 93.0367 119.701 93.0373 119.661C93.0379 119.622 93.0471 119.583 93.0644 119.546C93.0817 119.51 93.1068 119.477 93.1383 119.449C93.1697 119.422 93.2069 119.4 93.2477 119.385C93.2884 119.37 93.332 119.363 93.3759 119.364C93.4198 119.364 93.4632 119.372 93.5035 119.388C93.5439 119.404 93.5804 119.426 93.6111 119.455C93.6417 119.483 93.6659 119.517 93.6821 119.553L96.5836 126.112L100.353 124.845C100.394 124.831 100.438 124.824 100.483 124.825C100.527 124.826 100.571 124.835 100.611 124.851C100.652 124.868 100.688 124.891 100.718 124.92C100.749 124.949 100.772 124.984 100.788 125.021C100.803 125.059 100.81 125.099 100.809 125.139C100.807 125.178 100.796 125.218 100.778 125.254C100.759 125.29 100.732 125.323 100.699 125.35C100.667 125.377 100.628 125.397 100.586 125.411L96.5109 126.78C96.4736 126.793 96.4341 126.799 96.3942 126.8ZM83.7085 167.443C84.1616 163.922 81.8444 160.725 82.3805 158.426C83.2458 154.713 87.3016 155.245 93.0281 144.749C89.9941 151.948 83.7085 167.443 83.7085 167.443Z" fill="#242D35"/>
<path d="M83.7089 167.745C83.6617 167.745 83.615 167.736 83.572 167.718C83.529 167.701 83.4905 167.676 83.4591 167.644C83.4277 167.612 83.4042 167.575 83.39 167.534C83.3758 167.493 83.3712 167.451 83.3767 167.408C83.6074 165.614 83.0828 163.863 82.6201 162.318C82.1894 160.882 81.7827 159.524 82.0533 158.363C82.4402 156.704 83.4469 155.831 84.8405 154.623C86.6752 153.032 89.4478 150.628 92.7284 144.616C92.7665 144.546 92.8327 144.493 92.9133 144.466C92.994 144.44 93.0828 144.442 93.1615 144.473C93.2402 144.504 93.3027 144.561 93.3361 144.632C93.3695 144.704 93.3711 144.784 93.3408 144.856C90.3422 151.971 84.0857 167.392 84.0228 167.547C83.9993 167.605 83.9566 167.655 83.9005 167.69C83.8443 167.726 83.7775 167.745 83.709 167.745H83.7089ZM91.0369 148.666C88.7032 152.111 86.7265 153.824 85.3037 155.058C83.9479 156.233 83.052 157.01 82.7077 158.488C82.4701 159.507 82.8387 160.737 83.2655 162.161C83.592 163.251 83.9484 164.44 84.0638 165.693C85.4232 162.349 88.5867 154.581 91.0369 148.666ZM67.6113 192.616C67.5586 192.616 67.5067 192.605 67.4598 192.583C67.4129 192.562 67.3723 192.53 67.3413 192.492C67.3103 192.453 67.2898 192.409 67.2814 192.362C67.2731 192.315 67.2771 192.267 67.2932 192.222L87.9646 134.492C87.9919 134.415 88.0516 134.352 88.1306 134.316C88.1697 134.298 88.2123 134.287 88.2561 134.284C88.2999 134.28 88.3439 134.285 88.3857 134.297C88.4275 134.309 88.4662 134.329 88.4997 134.355C88.5331 134.38 88.5606 134.412 88.5806 134.447C88.6006 134.482 88.6127 134.521 88.6162 134.56C88.6197 134.6 88.6146 134.64 88.601 134.677L67.9296 192.407C67.9079 192.468 67.8654 192.521 67.8082 192.558C67.7511 192.596 67.682 192.616 67.6113 192.616ZM130.018 158.498C129.972 158.498 129.927 158.489 129.884 158.473C129.842 158.456 129.804 158.432 129.773 158.401C129.741 158.37 129.717 158.334 129.702 158.295C129.687 158.256 129.681 158.214 129.685 158.172L131.124 141.644C131.131 141.565 131.173 141.491 131.24 141.439C131.308 141.387 131.395 141.361 131.483 141.367C131.527 141.37 131.57 141.381 131.609 141.399C131.648 141.417 131.683 141.442 131.711 141.472C131.74 141.502 131.762 141.537 131.775 141.575C131.789 141.612 131.794 141.652 131.791 141.692L130.351 158.22C130.345 158.295 130.307 158.366 130.245 158.417C130.183 158.469 130.103 158.498 130.018 158.498ZM128.056 131.633C131.414 131.83 133.202 133.246 133.027 135.175C132.853 137.103 128.317 143.99 127.26 148.16C127.707 140.999 128.143 135.726 128.056 131.633V131.633Z" fill="#242D35"/>
<path d="M127.26 148.462C127.215 148.462 127.17 148.454 127.128 148.437C127.086 148.421 127.049 148.397 127.017 148.368C126.986 148.338 126.962 148.302 126.946 148.264C126.93 148.225 126.924 148.184 126.926 148.143C127.017 146.693 127.107 145.32 127.192 144.018C127.527 138.919 127.791 134.891 127.721 131.639C127.72 131.597 127.729 131.555 127.747 131.517C127.765 131.478 127.791 131.443 127.825 131.415C127.858 131.386 127.898 131.363 127.941 131.349C127.985 131.335 128.031 131.329 128.077 131.332C130.117 131.451 131.668 132.009 132.563 132.944C133.162 133.57 133.437 134.349 133.361 135.199C133.275 136.147 132.297 138.03 131.058 140.413C129.693 143.042 128.146 146.021 127.586 148.227C127.569 148.294 127.528 148.353 127.469 148.396C127.41 148.439 127.336 148.462 127.261 148.462L127.26 148.462ZM128.396 131.96C128.442 135.176 128.184 139.113 127.86 144.054C127.824 144.599 127.787 145.156 127.75 145.726C128.49 143.936 129.514 141.965 130.453 140.157C131.566 138.014 132.618 135.989 132.694 135.15C132.757 134.456 132.542 133.846 132.057 133.339C131.333 132.582 130.071 132.108 128.396 131.96ZM133.158 132.23C133.09 132.23 133.023 132.211 132.967 132.176C132.911 132.14 132.868 132.09 132.844 132.033C132.821 131.975 132.817 131.912 132.835 131.852C132.852 131.792 132.889 131.739 132.941 131.699C133.25 131.461 133.262 131.358 133.262 131.357C133.231 131.309 133.001 131.21 132.877 131.157C132.587 131.032 132.259 130.89 132.207 130.587C132.158 130.297 132.411 130.085 132.494 130.015C132.81 129.751 132.847 129.546 132.795 129.472C132.741 129.396 132.513 129.329 132.13 129.472C131.662 129.646 131.164 129.572 130.889 129.286C130.643 129.029 130.633 128.665 130.864 128.312C130.909 128.244 130.955 128.151 130.925 128.095C130.856 127.97 130.519 127.793 129.303 127.664L113.705 126.622C113.661 126.619 113.618 126.608 113.579 126.59C113.54 126.572 113.505 126.548 113.476 126.518C113.448 126.488 113.426 126.453 113.412 126.415C113.398 126.378 113.393 126.338 113.396 126.298C113.399 126.259 113.411 126.22 113.431 126.185C113.451 126.15 113.478 126.118 113.511 126.092C113.545 126.066 113.583 126.047 113.625 126.034C113.666 126.022 113.71 126.017 113.754 126.02L129.367 127.063C130.48 127.181 131.265 127.356 131.524 127.827C131.614 127.991 131.673 128.262 131.44 128.619C131.402 128.676 131.323 128.817 131.394 128.891C131.464 128.963 131.656 128.996 131.875 128.915C132.508 128.679 133.09 128.77 133.358 129.147C133.566 129.44 133.569 129.939 132.95 130.457C132.936 130.469 132.923 130.481 132.91 130.493C132.98 130.533 133.091 130.58 133.165 130.612C133.48 130.748 133.872 130.917 133.925 131.283C133.978 131.647 133.636 131.957 133.375 132.158C133.315 132.204 133.238 132.23 133.158 132.23L133.158 132.23Z" fill="#242D35"/>
<path d="M92.4036 123.25C87.9333 125.297 81.4788 126.242 77.2275 125.021C76.96 122.6 76.4853 120.085 75.7898 117.532V117.529C74.6831 113.471 73.0181 109.319 70.7311 105.311C68.4693 101.342 65.6005 97.5136 62.0631 94.0531C61.7388 93.7348 61.4078 93.4195 61.0701 93.1072C63.3805 91.5308 66.2024 90.0993 68.8203 88.992C70.0574 88.4686 71.2494 88.0175 72.3209 87.657C76.0038 89.8157 80.4373 94.3171 84.2388 100.433C88.0922 106.634 91.2952 114.493 92.4036 123.25Z" fill="url(#paint10_linear_2015_6634)"/>
<path d="M68.8203 88.9919C68.282 89.9167 67.391 90.8067 66.6888 91.3588C65.8898 91.9894 64.8265 92.2579 63.9037 92.73C63.2133 93.0845 62.6165 93.5431 62.0631 94.053C61.7388 93.7347 61.4078 93.4194 61.0701 93.1072C63.3805 91.5308 66.2024 90.0992 68.8203 88.9919Z" fill="white"/>
<path d="M81.6235 125.862C79.97 125.862 78.4283 125.683 77.1262 125.309C77.064 125.291 77.0089 125.257 76.9678 125.211C76.9267 125.166 76.9013 125.11 76.8948 125.051C76.6237 122.598 76.1426 120.092 75.465 117.604C75.4632 117.597 75.4617 117.59 75.4605 117.584C74.3053 113.353 72.6142 109.271 70.4339 105.449C67.8447 100.904 64.6137 96.8228 60.8307 93.3178C60.7976 93.2872 60.7721 93.2505 60.7559 93.2103C60.7397 93.1701 60.7332 93.1272 60.7368 93.0845C60.7404 93.0419 60.754 93.0004 60.7767 92.9628C60.7994 92.9252 60.8307 92.8924 60.8685 92.8666C64.4504 90.4225 69.0728 88.4268 72.2043 87.3744C72.2532 87.358 72.3057 87.3521 72.3576 87.3573C72.4095 87.3624 72.4594 87.3785 72.5032 87.4042C76.5227 89.7602 80.9065 94.4551 84.5304 100.285C87.5684 105.174 91.4579 113.121 92.7359 123.216C92.7437 123.278 92.7305 123.339 92.6981 123.394C92.6658 123.448 92.6159 123.492 92.555 123.52C89.2532 125.032 85.181 125.862 81.6235 125.862V125.862ZM77.5378 124.792C81.4403 125.826 87.4564 125.116 92.0445 123.075C90.7524 113.18 86.934 105.387 83.9471 100.58C80.4694 94.9856 76.119 90.2952 72.2792 87.9934C69.2852 89.0139 64.9929 90.8724 61.5745 93.144C65.2901 96.6362 68.4694 100.682 71.0284 105.173C73.2354 109.041 74.9466 113.174 76.1145 117.457C76.1163 117.463 76.118 117.47 76.1191 117.477C76.7833 119.92 77.2603 122.379 77.5376 124.792L77.5378 124.792Z" fill="#242D35"/>
<path d="M84.2388 100.433L84.2371 100.434L74.4792 97.6328L75.1345 92.7331L70.1627 91.4343L72.3209 87.657C76.0038 89.8157 80.4373 94.3171 84.2388 100.433Z" fill="url(#paint11_linear_2015_6634)"/>
<path d="M84.2371 100.736C84.2032 100.736 84.1691 100.731 84.1358 100.722L74.3779 97.9203C74.3037 97.8989 74.2401 97.8549 74.198 97.7958C74.1559 97.7368 74.138 97.6663 74.1473 97.5965L74.7685 92.9515L70.07 91.7239C70.0225 91.7115 69.9787 91.6898 69.9417 91.6604C69.9047 91.6309 69.8754 91.5944 69.8559 91.5534C69.8364 91.5125 69.8271 91.4682 69.8289 91.4237C69.8307 91.3791 69.8433 91.3355 69.866 91.2959L72.024 87.5186C72.0455 87.4812 72.0754 87.4482 72.1118 87.4218C72.1483 87.3954 72.1904 87.3761 72.2356 87.3653C72.2807 87.3545 72.3279 87.3524 72.3741 87.359C72.4202 87.3656 72.4643 87.3809 72.5035 87.4038C76.523 89.7598 80.9069 94.4548 84.5307 100.285C84.5664 100.342 84.5803 100.409 84.5703 100.474C84.5604 100.539 84.5271 100.599 84.4755 100.646L84.4738 100.647C84.4112 100.704 84.3261 100.736 84.2375 100.736H84.2371ZM74.8441 97.4208L83.5256 99.913C80.1736 94.694 76.0911 90.3367 72.4468 88.0949L70.6462 91.2463L75.2274 92.4433C75.3036 92.4632 75.3695 92.5069 75.4132 92.5666C75.457 92.6263 75.4758 92.6981 75.4663 92.7692L74.8441 97.4208ZM75.7898 117.528C74.6831 113.471 73.0181 109.319 70.7311 105.311C70.7378 105.297 70.7428 105.285 70.7495 105.273C72.4513 104.569 74.9055 104.214 76.278 106.094C77.4866 107.752 74.8737 113.332 75.7898 117.528Z" fill="#242D35"/>
<path d="M75.7895 117.83C75.7148 117.83 75.6422 117.808 75.5834 117.766C75.5247 117.724 75.483 117.666 75.4652 117.601C74.31 113.364 72.6172 109.276 70.4339 105.449C70.411 105.409 70.3983 105.365 70.3969 105.32C70.3955 105.275 70.4053 105.23 70.4257 105.188C70.4366 105.165 70.4431 105.152 70.4504 105.139C70.4845 105.077 70.5409 105.028 70.6101 104.999C71.5591 104.606 74.793 103.513 76.557 105.928C77.2171 106.834 76.9025 108.557 76.5045 110.738C76.1083 112.909 75.6591 115.369 76.1178 117.47C76.1273 117.514 76.126 117.559 76.1139 117.602C76.1018 117.646 76.0793 117.686 76.0479 117.72C76.0165 117.755 75.977 117.783 75.9324 117.802C75.8877 117.821 75.8389 117.83 75.7895 117.83ZM71.1768 105.435C72.8385 108.386 74.2127 111.489 75.2786 114.693C75.3553 113.321 75.6093 111.931 75.8448 110.64C76.1895 108.752 76.515 106.968 75.9986 106.26C74.684 104.459 72.3666 104.996 71.1768 105.435Z" fill="#242D35"/>
<path d="M137.541 94.1495C134.465 96.4168 124.605 102.16 113.747 101.986C110.746 101.939 107.668 101.439 104.637 100.289L104.641 100.292C106.764 103.303 109.019 109.912 109.87 113.335C110.286 115.011 110.178 115.56 109.183 116.581C108.006 117.791 105.421 118.972 102.904 119.414C101.159 109.627 98.1561 102.308 93.848 96.5797C90.5697 92.2216 86.5341 88.7852 81.7195 85.8859C92.3618 83.7046 101.346 87.69 108.892 88.7626C108.974 88.7747 109.056 88.7852 109.138 88.7958C110.288 88.9496 111.403 89.0341 112.486 89.0145C115.637 88.9572 118.521 88.6495 121.059 88.2301C121.069 88.2286 121.081 88.2256 121.091 88.2241C126.492 87.3295 130.317 85.9356 131.785 85.4137C133.157 87.3612 137.541 94.1495 137.541 94.1495Z" fill="url(#paint12_linear_2015_6634)"/>
<path d="M102.904 119.716C102.824 119.716 102.747 119.69 102.687 119.644C102.627 119.597 102.586 119.533 102.574 119.462C100.884 109.986 97.9389 102.557 93.5711 96.7494C90.4587 92.6119 86.5212 89.1407 81.5338 86.1371C81.4794 86.1043 81.4369 86.0579 81.4115 86.0036C81.3861 85.9493 81.3789 85.8894 81.3907 85.8314C81.4026 85.7735 81.433 85.7199 81.4782 85.6773C81.5235 85.6348 81.5815 85.6051 81.6453 85.592C89.3726 84.0084 96.2177 85.6379 102.257 87.0754C104.612 87.6359 106.836 88.1654 108.944 88.4649C109.025 88.4769 109.105 88.4872 109.185 88.4976C110.405 88.6608 111.482 88.7328 112.479 88.7132C115.314 88.6617 118.18 88.3994 120.998 87.9339C121.012 87.9308 121.025 87.9284 121.037 87.9266C126.242 87.0644 129.946 85.7447 131.528 85.1811L131.662 85.1335C131.734 85.1077 131.814 85.1054 131.888 85.1271C131.962 85.1488 132.025 85.193 132.067 85.2522C133.427 87.1823 137.786 93.93 137.83 93.9981C137.87 94.0601 137.884 94.1331 137.87 94.2037C137.855 94.2744 137.814 94.3382 137.752 94.3836C137.309 94.7105 126.875 102.292 114.242 102.292C114.075 102.292 113.909 102.291 113.741 102.289C110.831 102.243 108.037 101.774 105.419 100.894C107.384 104.141 109.388 110.018 110.196 113.269C110.635 115.037 110.493 115.694 109.434 116.781C108.194 118.055 105.535 119.26 102.967 119.711C102.946 119.715 102.925 119.716 102.903 119.716L102.904 119.716ZM82.5569 86.034C87.3105 88.9894 91.0998 92.3894 94.1245 96.4105C98.5001 102.228 101.463 109.638 103.177 119.054C105.474 118.59 107.852 117.492 108.931 116.382C109.848 115.441 109.94 114.995 109.544 113.401C108.678 109.918 106.433 103.399 104.361 100.458C104.324 100.407 104.304 100.347 104.305 100.287C104.306 100.226 104.327 100.166 104.366 100.116C104.409 100.06 104.473 100.019 104.546 99.9996C104.619 99.9805 104.697 99.9845 104.767 100.011C107.565 101.072 110.588 101.635 113.752 101.685C123.658 101.841 133.213 96.8703 137.107 94.0773C136.365 92.9311 132.984 87.7115 131.649 85.786C129.985 86.3784 126.295 87.6687 121.151 88.5208L121.117 88.5273C118.265 88.9984 115.363 89.2639 112.493 89.3161C111.458 89.3335 110.344 89.2621 109.088 89.0942C109.005 89.0836 108.921 89.0722 108.838 89.0601C106.698 88.756 104.458 88.2229 102.086 87.6584C96.3222 86.2864 89.8144 84.7373 82.5565 86.0336L82.5569 86.034Z" fill="#242D35"/>
<path d="M94.1272 91.3362L93.848 96.5798C90.5697 92.2217 86.5341 88.7853 81.7195 85.886C82.0471 85.9056 87.497 86.9284 87.497 86.9284L87.4101 88.5033L94.1272 91.3362Z" fill="url(#paint13_linear_2015_6634)"/>
<path d="M93.848 96.8814C93.7934 96.8814 93.7397 96.8694 93.6915 96.8463C93.6433 96.8233 93.6021 96.7899 93.5715 96.7491C90.4588 92.6116 86.5214 89.1404 81.5339 86.1368C81.4726 86.0999 81.4265 86.0458 81.4028 85.9829C81.379 85.9199 81.379 85.8517 81.4027 85.7887C81.4264 85.7258 81.4724 85.6716 81.5337 85.6347C81.595 85.5978 81.668 85.5802 81.7415 85.5847C82.0756 85.6047 86.6511 86.4612 87.5651 86.6326C87.7264 86.6628 87.8392 86.7945 87.8309 86.9431L87.7553 88.3155L94.2688 91.0628C94.3288 91.0881 94.3792 91.129 94.4134 91.1802C94.4477 91.2315 94.4643 91.2907 94.4612 91.3505L94.182 96.5941C94.1778 96.6715 94.1408 96.7444 94.0786 96.7979C94.0164 96.8514 93.9339 96.8814 93.848 96.8814ZM83.2068 86.4445C87.3723 89.12 90.7763 92.1565 93.5613 95.6796L93.7824 91.5238L87.2687 88.7764C87.2085 88.751 87.1581 88.71 87.1239 88.6586C87.0896 88.6073 87.0731 88.5479 87.0764 88.4881L87.149 87.1712C85.8359 86.9249 84.5219 86.6827 83.207 86.4447L83.2068 86.4445ZM113.747 101.986C110.746 101.939 107.668 101.439 104.637 100.289C103.342 98.221 102.22 96.4123 101.479 95.2206C101.011 94.4678 100.095 92.2292 103.459 92.7526C105.988 93.1464 106.652 95.5524 106.904 96.7276C107.471 99.3629 109.868 101.107 113.747 101.986Z" fill="#242D35"/>
<path d="M113.747 102.288H113.741C110.491 102.237 107.385 101.659 104.508 100.567C104.44 100.542 104.383 100.496 104.346 100.438C103.253 98.6922 102.283 97.1312 101.562 95.9701L101.188 95.3685C101.03 95.1142 100.274 93.803 100.932 92.963C101.353 92.4251 102.223 92.2545 103.516 92.4557C105.446 92.7561 106.696 94.1742 107.233 96.6703C107.762 99.1312 109.981 100.822 113.828 101.694C113.908 101.712 113.977 101.755 114.023 101.816C114.069 101.877 114.089 101.95 114.079 102.024C114.069 102.097 114.03 102.164 113.969 102.213C113.908 102.261 113.829 102.288 113.747 102.288L113.747 102.288ZM104.872 100.051C106.877 100.801 108.996 101.296 111.199 101.53C108.582 100.49 107.031 98.8998 106.576 96.7851C106.091 94.5289 105.053 93.3071 103.402 93.0501C102.4 92.8941 101.734 92.9843 101.478 93.3109C101.124 93.7628 101.515 94.6612 101.771 95.0731L102.145 95.6749C103.051 97.135 103.96 98.5936 104.872 100.051H104.872ZM120.489 91.3378C121.318 92.9986 117.314 93.3094 115.22 91.5987C113.986 90.5895 111.125 89.0991 109.138 88.7959C110.288 88.9498 111.403 89.0343 112.486 89.0146C115.637 88.9573 118.521 88.6496 121.059 88.2302C118.914 88.642 119.849 90.054 120.489 91.3378Z" fill="#242D35"/>
<path d="M118.658 93.0384C117.448 93.0384 116 92.6427 114.995 91.8221C113.849 90.8843 111.045 89.3926 109.082 89.0932C108.996 89.0794 108.919 89.0356 108.868 88.9712C108.817 88.9068 108.797 88.827 108.81 88.7489C108.824 88.6709 108.871 88.6008 108.942 88.5537C109.012 88.5067 109.1 88.4864 109.187 88.4973C110.406 88.6604 111.484 88.7313 112.48 88.7128C115.314 88.6613 118.18 88.399 120.999 87.9333C121.085 87.9192 121.174 87.9363 121.247 87.9808C121.319 88.0253 121.37 88.0938 121.387 88.1715C121.404 88.2493 121.386 88.33 121.338 88.3962C121.29 88.4624 121.214 88.5087 121.128 88.5253C120.598 88.6271 120.264 88.7972 120.134 89.0311C119.896 89.4614 120.27 90.1897 120.631 90.8942C120.686 91.0012 120.741 91.108 120.794 91.2139C121.073 91.7728 120.934 92.2897 120.413 92.632C120.004 92.9008 119.372 93.0383 118.659 93.0384H118.658ZM111.851 89.3162C113.32 89.9426 114.712 90.7767 115.444 91.375C116.858 92.5294 119.224 92.6666 120.019 92.144C120.282 91.9711 120.333 91.7606 120.184 91.4616C120.132 91.3576 120.078 91.2526 120.024 91.1476C119.597 90.316 119.156 89.4563 119.533 88.7672C117.202 89.0888 114.85 89.2723 112.493 89.3163C112.279 89.3201 112.065 89.3201 111.851 89.3163L111.851 89.3162ZM142.665 82.9803C142.583 82.9801 142.504 82.9529 142.443 82.9038C142.382 82.8546 142.343 82.787 142.334 82.7137C142.324 82.6403 142.345 82.5664 142.392 82.5058C142.438 82.4453 142.508 82.4024 142.588 82.3852C142.888 82.3206 144.383 81.9362 144.337 80.7012C144.335 80.6289 144.361 80.5581 144.411 80.5017C144.462 80.4454 144.533 80.4073 144.612 80.3944C145.684 80.2185 146.728 79.7438 147.176 79.4911C147.213 79.47 147.255 79.4558 147.298 79.4492C147.341 79.4427 147.386 79.4439 147.429 79.4528C147.471 79.4617 147.512 79.4781 147.548 79.5011C147.583 79.5241 147.614 79.5533 147.637 79.5869C147.66 79.6205 147.676 79.6579 147.683 79.6969C147.691 79.736 147.689 79.776 147.679 79.8146C147.669 79.8532 147.651 79.8897 147.626 79.9219C147.6 79.9542 147.568 79.9816 147.531 80.0026C147.08 80.2573 146.073 80.7183 144.999 80.9387C144.89 82.0993 143.745 82.7569 142.743 82.9721C142.718 82.9776 142.691 82.9804 142.665 82.9804L142.665 82.9803Z" fill="#242D35"/>
<path d="M144.426 82.8493C144.147 82.8493 143.873 82.7762 143.731 82.5715C143.571 82.3399 143.638 82.0518 143.931 81.7148C143.958 81.6834 143.992 81.6571 144.03 81.6375C144.069 81.6178 144.111 81.6052 144.155 81.6003C144.198 81.5955 144.243 81.5985 144.285 81.6091C144.328 81.6198 144.367 81.6379 144.402 81.6624C144.437 81.6869 144.465 81.7174 144.487 81.7521C144.509 81.7867 144.522 81.8249 144.528 81.8644C144.533 81.9039 144.529 81.9439 144.517 81.9821C144.505 82.0204 144.485 82.0561 144.457 82.0872C144.414 82.1351 144.377 82.1865 144.344 82.2408C144.438 82.2494 144.532 82.2444 144.623 82.2262C145.511 82.0543 147.367 81.2882 147.975 80.6685C148.035 80.6098 148.117 80.5745 148.205 80.5703C148.293 80.566 148.379 80.5931 148.444 80.6457C148.51 80.6983 148.55 80.7721 148.556 80.8513C148.562 80.9304 148.533 81.0085 148.476 81.0685C147.752 81.806 145.756 82.6243 144.763 82.8163C144.652 82.8379 144.539 82.8489 144.426 82.8493Z" fill="#242D35"/>
<path d="M145.109 83.7724C144.69 83.7724 144.213 83.6048 144.052 83.2567C143.968 83.0748 143.912 82.707 144.482 82.2874C144.55 82.2372 144.638 82.2137 144.726 82.2219C144.814 82.2302 144.895 82.2695 144.951 82.3313C145.007 82.3931 145.033 82.4723 145.025 82.5517C145.016 82.6311 144.973 82.7041 144.904 82.7549C144.685 82.9161 144.664 83.0133 144.669 83.0244C144.698 83.0867 144.933 83.1908 145.181 83.1655C146.53 83.0365 148.204 82.3275 148.744 81.8039C148.805 81.7453 148.888 81.7108 148.977 81.708C149.066 81.7051 149.152 81.7341 149.217 81.7887C149.282 81.8432 149.32 81.9188 149.323 81.9987C149.326 82.0787 149.294 82.1565 149.234 82.2151C148.6 82.8288 146.809 83.6165 145.252 83.7656C145.205 83.77 145.157 83.7724 145.109 83.7724Z" fill="#242D35"/>
<path d="M146.26 84.8209C145.455 84.8209 144.711 84.5432 144.513 84.0946C144.455 83.9626 144.324 83.5075 145.076 83.1922C145.115 83.1755 145.158 83.166 145.202 83.1643C145.246 83.1626 145.29 83.1688 145.331 83.1824C145.372 83.1959 145.41 83.2167 145.443 83.2435C145.475 83.2703 145.501 83.3026 145.52 83.3385C145.538 83.3745 145.549 83.4133 145.551 83.4529C145.552 83.4925 145.546 83.532 145.531 83.5692C145.516 83.6065 145.493 83.6406 145.463 83.6698C145.433 83.699 145.397 83.7226 145.358 83.7393C145.164 83.8205 145.133 83.8828 145.133 83.8834C145.139 83.8869 145.188 83.9546 145.344 84.0315C145.695 84.2044 146.359 84.3046 146.992 84.1145C147.076 84.0905 147.166 84.0971 147.245 84.1331C147.323 84.1691 147.383 84.2315 147.41 84.3067C147.438 84.382 147.432 84.4641 147.393 84.5353C147.354 84.6064 147.286 84.6609 147.203 84.687C146.899 84.7784 146.574 84.8211 146.259 84.8211L146.26 84.8209Z" fill="#242D35"/>
<path d="M71.7325 86.417L71.5389 87.9284L76.3443 91.7001L79.8441 87.2729L71.7325 86.417Z" fill="white"/>
<path d="M76.3443 92.0019C76.2643 92.0019 76.1862 91.9758 76.1248 91.9279L71.3194 88.1561C71.2784 88.124 71.2467 88.0833 71.2271 88.0376C71.2074 87.992 71.2005 87.9426 71.2067 87.894L71.4003 86.3826C71.4105 86.303 71.4553 86.2304 71.5249 86.1806C71.5942 86.131 71.6822 86.1082 71.7713 86.1175L79.8827 86.9735C79.9405 86.9795 79.9955 86.999 80.0423 87.0301C80.0891 87.0612 80.1262 87.1028 80.1497 87.1508C80.1733 87.1987 80.1826 87.2514 80.1767 87.3036C80.1708 87.3558 80.1499 87.4057 80.1161 87.4483L76.6163 91.8755C76.5854 91.9147 76.5446 91.9466 76.4973 91.9686C76.4499 91.9906 76.3974 92.0021 76.3442 92.0021L76.3443 92.0019ZM71.8911 87.8053L76.2858 91.2546L79.2431 87.5135L72.026 86.7519L71.891 87.8051L71.8911 87.8053Z" fill="#242D35"/>
<path d="M80.7174 84.7644L79.8441 87.2731L84.7504 88.0404L83.3437 85.6203L80.7174 84.7644Z" fill="white"/>
<path d="M84.7502 88.342C84.7313 88.342 84.7121 88.3405 84.693 88.3376L79.7868 87.5702C79.7398 87.5628 79.6952 87.5465 79.6558 87.5223C79.6164 87.4981 79.5832 87.4666 79.5584 87.4298C79.5336 87.3931 79.5178 87.352 79.5121 87.3094C79.5063 87.2667 79.5107 87.2234 79.525 87.1824L80.3985 84.6736C80.4257 84.5951 80.4874 84.5303 80.5692 84.4937C80.6095 84.4755 80.6536 84.465 80.6986 84.4627C80.7436 84.4603 80.7887 84.4664 80.8311 84.4803L83.4574 85.3364C83.536 85.362 83.601 85.4133 83.64 85.48L85.0464 87.9001C85.0731 87.9461 85.0862 87.9975 85.0844 88.0494C85.0827 88.1013 85.0661 88.1518 85.0363 88.1962C85.0066 88.2407 84.9646 88.2774 84.9145 88.3029C84.8644 88.3284 84.8079 88.3418 84.7504 88.3418L84.7502 88.342ZM80.2774 87.0345L84.1392 87.6385L83.108 85.8641L80.9319 85.1548L80.2774 87.0345ZM69.3121 78.94C70.3361 78.2701 69.8098 76.7593 68.4529 76.444C67.0137 76.1096 66.1104 74.6387 67.4804 73.352C68.5488 72.3486 70.4023 73.1947 71.1572 75.0199C72.055 77.1904 72.7424 76.4486 72.4112 75.2247C71.798 72.9586 70.3901 71.5865 72.2776 70.4794C74.0221 69.4562 78.8563 69.4115 78.6884 65.8751C78.5575 63.1204 76.3335 62.3728 73.7169 62.3728C71.1002 62.3728 64.0353 64.6946 64.7331 70.322C60.7209 75.6346 67.5679 80.0815 69.3121 78.9402V78.94Z" fill="#242D35"/>
<path d="M68.5906 79.4227C67.6337 79.4227 66.369 78.8698 65.2705 77.9071C63.3494 76.2233 62.122 73.3339 64.388 70.2445C64.1846 68.3557 64.7963 66.6771 66.2074 65.2534C68.3828 63.0584 71.9084 62.071 73.7167 62.071C77.1178 62.071 78.9031 63.3466 79.0223 65.8622C79.155 68.6555 76.3791 69.4623 74.3523 70.0514C73.6065 70.2683 72.902 70.4728 72.4597 70.7325C71.3458 71.3859 71.5576 72.0492 72.1427 73.4875C72.342 73.9774 72.568 74.5329 72.736 75.1533C72.95 75.9442 72.7924 76.5591 72.3435 76.6838C71.8261 76.8265 71.3368 76.3173 70.8438 75.1257C70.4357 74.1387 69.651 73.4036 68.8447 73.253C68.5423 73.1965 68.1018 73.2042 67.7215 73.5615C67.2166 74.0356 67.0332 74.5511 67.1909 75.0521C67.3532 75.5683 67.8813 76 68.5361 76.1524C69.3628 76.3444 69.9962 76.9401 70.1497 77.6696C70.2766 78.2726 70.0367 78.839 69.5081 79.1848C69.2615 79.3461 68.9474 79.4231 68.5905 79.4231L68.5906 79.4227ZM73.7167 62.6744C72.0809 62.6744 68.7214 63.6219 66.7057 65.6559C65.3996 66.9737 64.8476 68.5324 65.0653 70.2885C65.0743 70.3603 65.0544 70.4324 65.0092 70.492C62.3338 74.0346 64.8894 76.7321 65.7365 77.4744C67.058 78.6325 68.5784 79.0483 69.1159 78.696C69.4338 78.4879 69.5714 78.1548 69.493 77.7819C69.3875 77.2809 68.9465 76.8706 68.3694 76.7363C67.4752 76.5285 66.7773 75.9462 66.5479 75.2167C66.3249 74.5078 66.5705 73.7715 67.2395 73.1432C67.7014 72.7097 68.3195 72.5384 68.9806 72.662C70.0223 72.8566 70.9764 73.7198 71.4707 74.9147C71.7816 75.6668 72.0185 75.9483 72.1345 76.05C72.1687 75.924 72.1872 75.6685 72.0866 75.2965C71.9278 74.7087 71.7086 74.1704 71.5153 73.6953C70.9638 72.3402 70.4879 71.1698 72.0958 70.2267C72.613 69.9233 73.3584 69.7067 74.1477 69.4772C76.1715 68.8891 78.4654 68.2223 78.3546 65.8883C78.2504 63.6959 76.7768 62.6746 73.717 62.6746L73.7167 62.6744Z" fill="#242D35"/>
<path d="M73.2153 121.105C74.9707 121.046 79.3695 120.185 80.8254 119.806C82.5263 119.364 83.9327 120.161 81.5124 120.928C79.3118 121.626 78.2742 121.961 78.5686 122.463C78.863 122.965 83.0891 122.444 84.0962 122.286C85.4699 122.069 86.2549 122.66 85.3064 123.319C86.5384 123.643 86.2113 124.47 84.5869 125.001C81.8729 125.889 78.1435 125.68 78.0126 126.329C77.8817 126.978 80.3186 127.432 81.4796 127.618C82.9514 127.854 82.7259 128.935 81.2833 128.857C77.4565 128.651 73.3354 126.388 71.5036 127.244C71.6018 125.001 72.1142 122.079 73.2153 121.105V121.105Z" fill="url(#paint14_linear_2015_6634)"/>
<path d="M81.4284 129.163C81.3751 129.163 81.3201 129.162 81.2634 129.159C79.5235 129.065 77.725 128.556 76.1384 128.107C74.2948 127.586 72.5528 127.093 71.6574 127.512C71.6055 127.537 71.5473 127.548 71.4889 127.546C71.4304 127.543 71.3736 127.527 71.3243 127.499C71.2749 127.471 71.2346 127.431 71.2075 127.384C71.1803 127.337 71.1673 127.285 71.1696 127.232C71.2056 126.409 71.4622 122.233 72.9811 120.89C73.0406 120.837 73.1196 120.806 73.2028 120.804C74.8872 120.747 79.211 119.913 80.7327 119.517C81.8592 119.223 82.9277 119.412 83.1135 119.938C83.2301 120.267 83.0662 120.755 81.623 121.213C80.3196 121.626 78.9726 122.053 78.8575 122.295C79.3578 122.508 82.3002 122.262 84.0385 121.989C85.0033 121.837 85.772 122.036 85.9963 122.496C86.0555 122.617 86.1327 122.888 85.8853 123.213C86.2989 123.436 86.3813 123.719 86.3873 123.892C86.4059 124.421 85.7913 124.928 84.7007 125.285C83.331 125.733 81.7267 125.907 80.4376 126.047C79.6084 126.137 78.586 126.248 78.3523 126.399C78.4181 126.484 78.8563 126.891 81.5379 127.321C82.5567 127.484 82.8591 127.99 82.809 128.374C82.7575 128.765 82.3043 129.163 81.4284 129.163V129.163ZM72.5306 126.751C73.5779 126.751 74.8886 127.122 76.3383 127.532C77.8882 127.97 79.645 128.467 81.3031 128.557C81.8699 128.586 82.1311 128.406 82.1448 128.303C82.1588 128.195 81.9385 127.998 81.4207 127.915C78.3279 127.419 77.9342 126.908 77.8048 126.74C77.6933 126.595 77.6511 126.435 77.6832 126.275C77.7939 125.726 78.7043 125.627 80.3575 125.448C81.6128 125.312 83.1751 125.142 84.4725 124.718C85.3905 124.417 85.724 124.064 85.7186 123.911C85.7156 123.826 85.558 123.7 85.2123 123.608C85.153 123.593 85.0996 123.563 85.0582 123.521C85.0167 123.48 84.9887 123.429 84.9773 123.375C84.9658 123.32 84.9714 123.263 84.9934 123.211C85.0154 123.159 85.053 123.114 85.1019 123.08C85.346 122.91 85.4045 122.781 85.3841 122.739C85.3306 122.629 84.9016 122.465 84.1534 122.583C83.6106 122.668 82.2992 122.836 81.0914 122.923C78.7607 123.089 78.4146 122.846 78.273 122.604C78.146 122.387 78.1799 122.202 78.2307 122.085C78.4419 121.599 79.3021 121.309 81.4014 120.644C82.2175 120.385 82.4186 120.175 82.4629 120.112C82.329 120.006 81.7205 119.888 80.9182 120.097C79.4098 120.489 75.182 121.306 73.3653 121.401C72.5062 122.279 72.0047 124.653 71.8622 126.812C72.0707 126.77 72.294 126.751 72.5307 126.751L72.5306 126.751Z" fill="#242D35"/>
<path d="M68.985 120.536C70.7512 121.008 73.2152 121.105 73.2152 121.105L71.574 129.576L65.2127 128.524L68.985 120.536Z" fill="white"/>
<path d="M71.5742 129.878C71.5541 129.878 71.5341 129.876 71.514 129.873L65.1525 128.821C65.1031 128.813 65.0564 128.795 65.0158 128.768C64.9752 128.742 64.9418 128.707 64.918 128.667C64.8943 128.627 64.8808 128.583 64.8786 128.538C64.8764 128.493 64.8855 128.448 64.9053 128.406L68.6776 120.417C68.7097 120.349 68.7685 120.294 68.8427 120.263C68.9169 120.231 69.0014 120.225 69.0801 120.246C70.7855 120.702 73.2056 120.803 73.2299 120.804C73.2774 120.806 73.3238 120.817 73.3662 120.836C73.4086 120.856 73.4459 120.883 73.4757 120.916C73.5055 120.95 73.527 120.989 73.5389 121.03C73.5507 121.072 73.5526 121.115 73.5445 121.157L71.9035 129.628C71.8881 129.707 71.8383 129.777 71.7653 129.823C71.7092 129.859 71.6425 129.877 71.5742 129.877V129.878ZM65.6843 128.296L71.3029 129.224L72.8213 121.387C72.1055 121.343 70.5148 121.215 69.1777 120.898L65.6843 128.296Z" fill="#242D35"/>
<path d="M67.411 119.992C67.9075 120.197 68.4341 120.38 68.9858 120.535C68.9858 120.535 67.5464 127.56 66.6303 131.279C64.7546 131.279 60.6756 130.268 56.7035 128.103C51.6699 125.364 46.8085 120.772 46.8085 114.042C46.8085 102.001 59.4335 93.6488 64.6894 90.947L65.3197 92.1131L72.1905 104.834C70.7746 105.215 69.5024 105.702 68.379 106.261C64.2565 108.316 62.1166 111.374 62.1166 113.925C62.1166 116.282 64.1378 118.639 67.411 119.99V119.992Z" fill="url(#paint15_linear_2015_6634)"/>
<path d="M65.3197 92.1131C64.8449 92.3152 64.3584 92.4978 63.9037 92.7301C61.3694 94.0289 60.0871 96.7518 57.638 98.1758C56.8122 98.6555 55.856 98.9859 55.1889 99.636C54.6205 100.187 54.3196 100.912 53.905 101.565C53.116 102.804 51.914 103.784 51.0213 104.964C49.6705 106.746 49.0821 108.895 48.517 110.992C48.1024 112.537 47.6845 114.145 48.0523 115.699C48.4167 117.237 49.5184 118.572 49.8628 120.114C49.9631 120.561 50.0115 121.046 50.3292 121.399C50.5833 121.68 50.9661 121.831 51.3205 121.998C53.9234 123.226 55.4363 125.674 56.7035 128.103C51.6699 125.364 46.8085 120.772 46.8085 114.042C46.8085 102.001 59.4335 93.6488 64.6894 90.947L65.3197 92.1131Z" fill="white"/>
<path d="M66.6303 131.58C64.4964 131.58 59.4564 130.291 54.9323 127.423C51.0736 124.978 46.474 120.671 46.474 114.042C46.474 108.748 48.8467 103.618 53.5262 98.7939C57.8147 94.3729 62.6459 91.6505 64.5238 90.6849C64.6006 90.6484 64.6901 90.6403 64.7735 90.6623C64.8568 90.6842 64.9274 90.7346 64.9704 90.8026C65.0134 90.8707 65.0253 90.9512 65.0038 91.0271C64.9823 91.103 64.9289 91.1683 64.855 91.2094C63.0419 92.1412 47.1428 100.699 47.1428 114.042C47.1428 120.412 51.5878 124.566 55.3168 126.93C59.5401 129.606 64.1844 130.871 66.3635 130.97C67.168 127.662 68.3405 122.015 68.6035 120.74C68.1507 120.604 67.7063 120.445 67.272 120.266C67.2618 120.262 67.2518 120.258 67.2422 120.252C63.8735 118.852 61.7823 116.43 61.7823 113.925C61.7823 111.057 64.3081 107.946 68.2173 105.997C69.4044 105.406 70.7091 104.917 72.0951 104.545C72.1373 104.534 72.1816 104.53 72.2255 104.534C72.2694 104.537 72.312 104.549 72.3509 104.568C72.3897 104.587 72.4241 104.612 72.452 104.643C72.4798 104.674 72.5006 104.71 72.5132 104.748C72.5258 104.786 72.5299 104.826 72.5252 104.866C72.5206 104.905 72.5073 104.943 72.4861 104.978C72.465 105.013 72.4364 105.044 72.402 105.069C72.3676 105.094 72.3281 105.113 72.2857 105.124C70.9454 105.483 69.6855 105.955 68.5405 106.526C64.8412 108.369 62.4508 111.274 62.4508 113.925C62.4508 116.198 64.4048 118.417 67.55 119.716C67.56 119.72 67.5697 119.725 67.5791 119.73C68.0688 119.93 68.5719 120.103 69.0853 120.247C69.1633 120.269 69.2298 120.316 69.272 120.379C69.3142 120.442 69.3294 120.517 69.3145 120.59C69.3001 120.66 67.8634 127.663 66.9567 131.344C66.9402 131.411 66.8988 131.471 66.8395 131.514C66.7802 131.557 66.7064 131.58 66.6303 131.58Z" fill="#242D35"/>
<path d="M67.411 119.99V119.992C63.9923 119.316 61.9662 117.286 61.0701 116.797C60.0236 116.227 60.154 118.489 59.2814 118.489C58.4087 118.489 57.9406 117.697 58.2783 115.931C58.7146 113.649 62.4209 108.729 68.379 106.261C64.2565 108.316 62.1166 111.374 62.1166 113.925C62.1166 116.283 64.1378 118.639 67.411 119.99Z" fill="#242D35"/>
<path d="M67.411 120.294C67.3871 120.294 67.3632 120.291 67.3395 120.287C64.636 119.752 62.7783 118.395 61.6683 117.584C61.3553 117.355 61.0852 117.158 60.8971 117.055C60.8107 117.008 60.7624 117.003 60.7485 117.008C60.6226 117.048 60.4613 117.441 60.365 117.677C60.1617 118.173 59.9088 118.791 59.2812 118.791C58.8711 118.791 58.5227 118.65 58.274 118.384C57.8313 117.909 57.7218 117.067 57.9488 115.88C58.4264 113.381 62.3661 108.42 68.2396 105.987C68.3181 105.955 68.4075 105.951 68.489 105.977C68.5705 106.003 68.6377 106.056 68.6766 106.126C68.7155 106.195 68.7231 106.276 68.6977 106.35C68.6724 106.425 68.6161 106.488 68.5406 106.526C64.8414 108.369 62.451 111.274 62.451 113.925C62.451 116.198 64.4049 118.417 67.5503 119.716C67.6086 119.74 67.6579 119.779 67.6926 119.828C67.7272 119.876 67.7456 119.933 67.7456 119.99V119.992C67.7455 120.072 67.7102 120.149 67.6475 120.205C67.5849 120.262 67.4999 120.294 67.4112 120.294H67.411ZM60.7604 116.403C60.9153 116.403 61.0768 116.448 61.243 116.539C61.4703 116.663 61.7435 116.862 62.0894 117.115C62.6521 117.526 63.4154 118.084 64.3867 118.592C62.7337 117.266 61.7823 115.614 61.7823 113.925C61.7823 112.358 62.5361 110.719 63.8576 109.236C60.6547 111.706 58.8735 114.594 58.6078 115.982C58.3564 117.299 58.6113 117.808 58.7855 117.995C58.9067 118.125 59.0687 118.188 59.2814 118.188C59.4432 118.188 59.6206 117.755 59.7379 117.468C59.9181 117.027 60.1045 116.572 60.5276 116.439C60.6025 116.415 60.6812 116.403 60.7605 116.403L60.7604 116.403ZM78.6326 124.637C78.5609 124.637 78.4954 124.636 78.436 124.634C78.3474 124.631 78.2637 124.596 78.2034 124.537C78.143 124.479 78.111 124.401 78.1142 124.321C78.1156 124.281 78.1257 124.242 78.1439 124.206C78.1621 124.17 78.1881 124.138 78.2203 124.11C78.2525 124.083 78.2904 124.063 78.3317 124.049C78.3729 124.035 78.4168 124.029 78.4608 124.031C79.6243 124.074 83.6425 123.68 85.1658 123.045C85.2056 123.028 85.2487 123.019 85.2926 123.017C85.3365 123.016 85.3803 123.022 85.4215 123.036C85.4627 123.049 85.5005 123.07 85.5328 123.097C85.565 123.124 85.5911 123.156 85.6095 123.192C85.6279 123.228 85.6383 123.267 85.64 123.307C85.6418 123.346 85.6349 123.386 85.6197 123.423C85.6046 123.46 85.5814 123.494 85.5516 123.523C85.5219 123.553 85.486 123.576 85.4461 123.593C83.8884 124.242 80.069 124.637 78.6323 124.637H78.6326ZM95.7113 116.674C95.6456 116.674 95.5814 116.657 95.5266 116.624C95.4719 116.592 95.429 116.545 95.4034 116.49C95.158 115.969 95.1862 114.807 95.2188 113.461C95.2464 112.326 95.2748 111.152 95.1108 110.576C94.8728 109.738 93.5808 108.073 92.5425 106.736C92.0743 106.133 91.6321 105.564 91.3143 105.11C90.7447 104.296 90.5011 102.93 90.243 101.485C90.0098 100.178 89.7686 98.8262 89.2801 97.9813C88.7309 97.0316 87.5191 96.2325 86.3472 95.4596C85.3684 94.8142 84.4438 94.2045 83.875 93.5051C83.435 92.9642 83.3354 92.344 83.2301 91.6874C83.0221 90.3928 82.7864 88.9251 79.6955 87.5433C79.53 87.4694 79.4623 87.2884 79.5444 87.1391C79.6265 86.9897 79.8269 86.9285 79.9924 87.0027C83.3977 88.5251 83.6717 90.2304 83.8919 91.6008C83.989 92.2058 84.073 92.7285 84.4142 93.1479C84.9219 93.7723 85.8059 94.3552 86.7417 94.9723C87.9758 95.7861 89.2517 96.6276 89.8731 97.7023C90.4117 98.6338 90.6616 100.034 90.9032 101.389C91.1392 102.711 91.3832 104.078 91.8798 104.787C92.1889 105.229 92.6268 105.793 93.0902 106.39C94.2151 107.839 95.4903 109.481 95.7586 110.426C95.9452 111.083 95.9158 112.298 95.8873 113.474C95.8604 114.589 95.8298 115.852 96.0189 116.255C96.0405 116.301 96.0492 116.351 96.0442 116.4C96.0392 116.45 96.0206 116.498 95.9902 116.539C95.9597 116.581 95.9183 116.615 95.8696 116.638C95.8209 116.662 95.7665 116.674 95.7113 116.674V116.674ZM68.222 75.4641C68.1723 75.4641 68.1232 75.4542 68.0783 75.435C68.0334 75.4157 67.9938 75.3877 67.9624 75.3529C67.6464 75.0025 67.6071 74.5495 67.8599 74.1707C68.1003 73.8105 68.551 73.6204 68.9798 73.6966C69.0229 73.7043 69.0639 73.7196 69.1004 73.7416C69.1369 73.7636 69.1683 73.7918 69.1927 73.8248C69.2171 73.8577 69.2341 73.8946 69.2427 73.9335C69.2513 73.9724 69.2513 74.0124 69.2428 74.0512C69.2342 74.0901 69.2173 74.1271 69.1929 74.16C69.1685 74.193 69.1372 74.2213 69.1007 74.2433C69.0642 74.2654 69.0233 74.2807 68.9802 74.2884C68.9372 74.2962 68.8928 74.2962 68.8497 74.2885C68.6719 74.2552 68.5121 74.3626 68.4326 74.4818C68.3823 74.5572 68.2864 74.756 68.4811 74.9719C68.5209 75.0161 68.5459 75.0697 68.5534 75.1262C68.5608 75.1828 68.5504 75.2402 68.5233 75.2916C68.4962 75.3431 68.4535 75.3866 68.4001 75.4171C68.3468 75.4476 68.285 75.4638 68.2218 75.4639L68.222 75.4641Z" fill="#242D35"/>
</g>
<g clip-path="url(#clip6_2015_6634)">
<path d="M52.8462 54.8269H77.7871C79.2192 51.5222 72.695 49.1617 69.5126 52.3719C69.3004 47.7453 64.1023 45.6208 60.5485 45.6208C55.8808 45.6208 50.8418 49.3032 52.8462 54.8269Z" fill="white"/>
</g>
<defs>
<linearGradient id="paint0_linear_2015_6634" x1="225.038" y1="14.9841" x2="125.882" y2="175.716" gradientUnits="userSpaceOnUse">
<stop stop-color="#2FDAFF"/>
<stop offset="1" stop-color="#0E33F3"/>
</linearGradient>
<linearGradient id="paint1_linear_2015_6634" x1="222.268" y1="30.8303" x2="56.1647" y2="231.202" gradientUnits="userSpaceOnUse">
<stop stop-color="#2FDAFF"/>
<stop offset="1" stop-color="#0E33F3"/>
</linearGradient>
<linearGradient id="paint2_linear_2015_6634" x1="189.907" y1="28.7178" x2="160.646" y2="84.6217" gradientUnits="userSpaceOnUse">
<stop stop-color="#2FDAFF"/>
<stop offset="1" stop-color="#0E33F3"/>
</linearGradient>
<linearGradient id="paint3_linear_2015_6634" x1="69.1813" y1="194.4" x2="61.5005" y2="206.905" gradientUnits="userSpaceOnUse">
<stop stop-color="#2FDAFF"/>
<stop offset="1" stop-color="#0E33F3"/>
</linearGradient>
<linearGradient id="paint4_linear_2015_6634" x1="139.046" y1="160.006" x2="133.196" y2="170.268" gradientUnits="userSpaceOnUse">
<stop stop-color="#2FDAFF"/>
<stop offset="1" stop-color="#0E33F3"/>
</linearGradient>
<linearGradient id="paint5_linear_2015_6634" x1="78.7786" y1="118.806" x2="75.941" y2="123.796" gradientUnits="userSpaceOnUse">
<stop stop-color="#2FDAFF"/>
<stop offset="1" stop-color="#0E33F3"/>
</linearGradient>
<linearGradient id="paint6_linear_2015_6634" x1="149.633" y1="78.3425" x2="139.824" y2="92.3213" gradientUnits="userSpaceOnUse">
<stop stop-color="#2FDAFF"/>
<stop offset="1" stop-color="#0E33F3"/>
</linearGradient>
<linearGradient id="paint7_linear_2015_6634" x1="81.5033" y1="66.4993" x2="61.9859" y2="82.3646" gradientUnits="userSpaceOnUse">
<stop stop-color="#2FDAFF"/>
<stop offset="1" stop-color="#0E33F3"/>
</linearGradient>
<linearGradient id="paint8_linear_2015_6634" x1="145.1" y1="115.223" x2="68.1406" y2="205.588" gradientUnits="userSpaceOnUse">
<stop stop-color="#2FDAFF"/>
<stop offset="1" stop-color="#0E33F3"/>
</linearGradient>
<linearGradient id="paint9_linear_2015_6634" x1="107.941" y1="113.507" x2="102.788" y2="130.546" gradientUnits="userSpaceOnUse">
<stop stop-color="#2FDAFF"/>
<stop offset="1" stop-color="#0E33F3"/>
</linearGradient>
<linearGradient id="paint10_linear_2015_6634" x1="92.4036" y1="87.657" x2="56.2279" y2="120.177" gradientUnits="userSpaceOnUse">
<stop stop-color="#2FDAFF"/>
<stop offset="1" stop-color="#0E33F3"/>
</linearGradient>
<linearGradient id="paint11_linear_2015_6634" x1="84.2388" y1="87.657" x2="72.1736" y2="102.112" gradientUnits="userSpaceOnUse">
<stop stop-color="#2FDAFF"/>
<stop offset="1" stop-color="#0E33F3"/>
</linearGradient>
<linearGradient id="paint12_linear_2015_6634" x1="137.541" y1="85.2434" x2="109.504" y2="135.053" gradientUnits="userSpaceOnUse">
<stop stop-color="#2FDAFF"/>
<stop offset="1" stop-color="#0E33F3"/>
</linearGradient>
<linearGradient id="paint13_linear_2015_6634" x1="94.1272" y1="85.886" x2="84.1352" y2="98.4943" gradientUnits="userSpaceOnUse">
<stop stop-color="#2FDAFF"/>
<stop offset="1" stop-color="#0E33F3"/>
</linearGradient>
<linearGradient id="paint14_linear_2015_6634" x1="86.0536" y1="119.679" x2="78.4027" y2="132.865" gradientUnits="userSpaceOnUse">
<stop stop-color="#2FDAFF"/>
<stop offset="1" stop-color="#0E33F3"/>
</linearGradient>
<linearGradient id="paint15_linear_2015_6634" x1="72.1906" y1="90.947" x2="36.1074" y2="115.644" gradientUnits="userSpaceOnUse">
<stop stop-color="#2FDAFF"/>
<stop offset="1" stop-color="#0E33F3"/>
</linearGradient>
<clipPath id="clip0_2015_6634">
<rect width="172.309" height="115.604" fill="white" transform="translate(52.7288 14.9841)"/>
</clipPath>
<clipPath id="clip1_2015_6634">
<rect width="60.0572" height="17.2048" fill="white" transform="translate(167.992 77.4648)"/>
</clipPath>
<clipPath id="clip2_2015_6634">
<rect width="216.139" height="176.726" fill="white" transform="translate(16.2595 30.5288)"/>
</clipPath>
<clipPath id="clip3_2015_6634">
<rect width="62.2319" height="17.6576" fill="white" transform="translate(92.2093 24.1902)"/>
</clipPath>
<clipPath id="clip4_2015_6634">
<rect width="67.4179" height="88.7405" fill="white" transform="translate(122.823 28.416)"/>
</clipPath>
<clipPath id="clip5_2015_6634">
<rect width="111.415" height="145.184" fill="white" transform="translate(41.1858 62.071)"/>
</clipPath>
<clipPath id="clip6_2015_6634">
<rect width="25.5954" height="9.20607" fill="white" transform="translate(52.3942 45.6208)"/>
</clipPath>
</defs>
</svg>
